<!DOCTYPE svg PUBLIC "-//W3C//DTD SVG 20010904//EN" "http://www.w3.org/TR/2001/REC-SVG-20010904/DTD/svg10.dtd">
<svg version="1.0" xmlns="http://www.w3.org/2000/svg" width="512px" height="512px" viewBox="0 0 5120 5120" preserveAspectRatio="xMidYMid meet">
<g id="layer1" fill="#000000" stroke="none">
 <path d="M2015 5105 c-262 -37 -495 -108 -720 -220 -468 -232 -828 -592 -1060 -1060 -161 -324 -235 -648 -235 -1025 0 -345 61 -638 200 -950 192 -436 548 -831 965 -1073 249 -144 561 -254 818 -288 l97 -13 0 -238 0 -238 253 0 c276 0 431 14 624 55 416 89 834 290 1173 563 119 96 314 290 404 402 223 278 406 628 495 945 65 234 91 430 91 692 0 262 -31 473 -104 712 -62 201 -190 471 -224 471 -14 0 -264 -64 -335 -86 -13 -4 -23 9 -47 61 -80 178 -243 413 -406 584 -349 367 -786 602 -1289 692 -156 28 -545 36 -700 14z m659 -344 c543 -112 997 -403 1279 -818 70 -103 154 -270 141 -282 -5 -5 -460 -166 -1011 -357 l-1003 -349 0 -1072 c0 -909 -2 -1073 -14 -1073 -38 0 -215 43 -326 80 -524 172 -965 556 -1209 1053 -97 197 -153 377 -186 598 -20 131 -19 401 1 538 48 330 185 658 387 925 78 104 279 305 383 383 262 198 586 335 914 387 140 22 509 15 644 -13z m1940 -1406 c170 -345 206 -729 110 -1163 -134 -603 -542 -1165 -1094 -1507 -348 -215 -793 -354 -1137 -355 l-93 0 0 1193 0 1192 1078 367 c592 202 1080 367 1083 367 3 1 27 -42 53 -94z"/>
 </g>

</svg>