<!DOCTYPE svg PUBLIC "-//W3C//DTD SVG 20010904//EN" "http://www.w3.org/TR/2001/REC-SVG-20010904/DTD/svg10.dtd">
<svg version="1.0" xmlns="http://www.w3.org/2000/svg" width="512px" height="482px" viewBox="0 0 5120 4820" preserveAspectRatio="xMidYMid meet">
<g id="layer1" fill="#000000" stroke="none">
 <path d="M2470 4800 c-19 -10 -74 -58 -121 -107 -48 -48 -527 -617 -1066 -1263 -718 -862 -995 -1202 -1041 -1276 -123 -200 -203 -388 -223 -528 -20 -132 -22 -381 -5 -515 36 -273 159 -522 365 -735 262 -270 518 -376 905 -376 190 0 338 21 466 65 249 87 473 231 698 449 l113 109 52 -49 c253 -243 545 -433 789 -515 239 -80 634 -79 865 2 177 63 321 158 474 315 264 273 379 569 379 979 0 338 -63 551 -236 802 -72 104 -2065 2493 -2140 2565 -83 79 -119 98 -183 98 -35 -1 -69 -8 -91 -20z m1060 -1497 c596 -711 990 -1190 1035 -1258 90 -135 149 -259 182 -385 36 -137 43 -384 15 -520 -87 -420 -377 -731 -751 -806 -130 -26 -297 -16 -421 25 -301 100 -657 363 -951 701 -40 47 -76 85 -80 85 -3 0 -46 -47 -96 -105 -257 -301 -599 -560 -878 -665 -321 -120 -680 -43 -930 200 -114 111 -190 230 -249 387 -52 138 -61 199 -60 403 0 178 2 196 28 280 46 151 105 270 219 440 62 92 1952 2365 1967 2365 5 0 441 -516 970 -1147z"/>
 </g>

</svg>