<!DOCTYPE svg PUBLIC "-//W3C//DTD SVG 20010904//EN" "http://www.w3.org/TR/2001/REC-SVG-20010904/DTD/svg10.dtd">
<svg version="1.0" xmlns="http://www.w3.org/2000/svg" width="512px" height="630px" viewBox="0 0 5120 6300" preserveAspectRatio="xMidYMid meet">
<g id="layer1" fill="#000000" stroke="none">
 <path d="M592 6284 c-270 -49 -529 -312 -577 -585 -22 -127 -22 -4971 0 -5098 49 -278 308 -537 586 -586 126 -22 3792 -22 3918 0 278 49 537 308 586 586 22 127 22 4971 0 5098 -49 278 -308 537 -586 586 -119 21 -3812 20 -3927 -1z m3833 -408 c141 -37 234 -130 271 -271 11 -41 14 -480 14 -2455 0 -1975 -3 -2414 -14 -2455 -37 -141 -130 -234 -271 -271 -74 -20 -3656 -20 -3730 0 -141 37 -234 130 -271 271 -11 41 -14 480 -14 2455 0 1975 3 2414 14 2455 37 138 130 233 266 271 68 19 3664 19 3735 0z"/>
 <path d="M1330 5521 c-125 -40 -160 -101 -160 -276 l0 -115 -115 0 c-155 0 -211 -24 -255 -110 -26 -51 -32 -91 -21 -139 14 -63 56 -117 114 -146 45 -22 63 -25 163 -25 l112 0 4 -128 c3 -118 5 -132 28 -165 41 -61 93 -91 164 -95 71 -5 121 15 168 65 46 48 58 92 58 213 l0 110 113 0 c133 0 174 15 230 80 81 94 58 237 -50 310 -33 23 -47 25 -164 28 l-127 4 -4 126 c-3 121 -5 129 -32 170 -50 73 -155 116 -226 93z"/>
 <path d="M2905 5521 c-45 -11 -68 -26 -108 -70 -42 -46 -62 -108 -53 -164 28 -173 247 -242 362 -115 52 56 71 152 45 220 -19 51 -80 107 -134 123 -55 16 -66 17 -112 6z"/>
 <path d="M3890 5521 c-74 -24 -119 -63 -145 -123 -85 -205 169 -386 331 -236 80 74 95 181 38 268 -47 71 -153 114 -224 91z"/>
 <path d="M3075 4726 c-149 -65 -180 -249 -60 -354 47 -42 74 -52 136 -52 66 0 106 18 152 69 46 51 57 78 57 139 -1 146 -157 254 -285 198z"/>
 <path d="M4060 4724 c-42 -18 -96 -68 -117 -109 -25 -47 -21 -133 8 -185 80 -146 295 -146 368 -1 27 52 33 92 22 140 -28 127 -168 204 -281 155z"/>
 <path d="M1060 3931 c-150 -48 -256 -175 -281 -333 -6 -39 -9 -527 -7 -1283 l3 -1220 21 -52 c47 -114 148 -212 257 -250 49 -17 132 -18 1507 -18 1375 0 1458 1 1507 18 109 38 210 136 257 250 l21 52 3 1220 c2 756 -1 1244 -7 1283 -25 162 -136 290 -290 336 -49 14 -199 16 -1495 15 -1349 0 -1444 -1 -1496 -18z m2756 -420 c23 -10 54 -36 70 -57 l29 -37 3 -1042 2 -1041 -23 -44 c-16 -30 -37 -51 -67 -67 l-43 -23 -1227 0 -1227 0 -43 23 c-30 16 -51 37 -67 67 l-23 44 2 1041 3 1042 29 37 c16 21 47 47 70 57 39 18 91 19 1256 19 1165 0 1217 -1 1256 -19z"/>
 </g>

</svg>