<!DOCTYPE svg PUBLIC "-//W3C//DTD SVG 20010904//EN" "http://www.w3.org/TR/2001/REC-SVG-20010904/DTD/svg10.dtd">
<svg version="1.0" xmlns="http://www.w3.org/2000/svg" width="512px" height="448px" viewBox="0 0 5120 4480" preserveAspectRatio="xMidYMid meet">
<g id="layer1" fill="#000000" stroke="none">
 <path d="M895 4470 c-22 -5 -57 -9 -79 -9 -57 -1 -237 -65 -349 -124 -122 -64 -276 -179 -384 -286 -96 -94 -106 -121 -42 -121 64 0 178 -29 255 -66 133 -63 209 -152 270 -316 115 -310 282 -507 527 -624 97 -45 207 -72 352 -85 l120 -11 325 -322 c179 -177 654 -646 1055 -1041 402 -396 879 -866 1060 -1045 182 -179 353 -341 382 -359 67 -42 145 -60 258 -60 162 0 250 34 351 137 91 92 124 180 124 332 0 109 -18 182 -63 252 -21 34 -531 544 -1404 1406 l-1371 1352 -4 137 c-6 158 -30 251 -95 363 -50 85 -159 199 -245 257 -159 105 -393 201 -552 225 -91 13 -439 19 -491 8z m336 -321 c182 -36 432 -138 550 -225 148 -108 219 -271 191 -435 -17 -100 -37 -131 -156 -248 l-106 -104 -109 7 c-216 13 -392 82 -527 209 -107 100 -155 170 -243 357 -53 112 -111 199 -187 280 -62 65 -62 66 -41 80 161 102 374 129 628 79z m1099 -1194 l155 -155 -103 -102 -102 -103 -157 157 -158 158 100 100 c55 55 102 100 105 100 3 0 75 -70 160 -155z m1487 -1468 c711 -702 955 -948 964 -974 40 -121 -99 -230 -208 -163 -27 16 -1099 1066 -1838 1801 l-210 209 99 99 100 100 70 -67 c39 -36 499 -489 1023 -1005z"/>
 </g>

</svg>