<!DOCTYPE svg PUBLIC "-//W3C//DTD SVG 20010904//EN" "http://www.w3.org/TR/2001/REC-SVG-20010904/DTD/svg10.dtd">
<svg version="1.0" xmlns="http://www.w3.org/2000/svg" width="512px" height="529px" viewBox="0 0 5120 5290" preserveAspectRatio="xMidYMid meet">
<g id="layer1" fill="#000000" stroke="none">
 <path d="M1552 5270 c-88 -54 -105 -177 -36 -260 50 -59 71 -64 272 -68 l182 -4 0 -314 0 -314 -698 0 c-663 0 -703 -1 -776 -20 -125 -32 -208 -81 -311 -184 -103 -104 -149 -185 -171 -300 -21 -107 -20 -3208 0 -3315 43 -224 253 -434 478 -477 109 -21 4027 -21 4136 0 225 43 435 253 478 477 20 107 21 3208 0 3315 -22 115 -68 196 -171 300 -103 103 -186 152 -311 184 -73 19 -113 20 -691 20 l-613 0 0 315 0 315 153 0 c217 1 264 15 314 98 48 78 18 194 -59 233 -36 18 -76 19 -1090 19 -1033 0 -1054 0 -1086 -20z m1408 -645 l0 -315 -315 0 -315 0 0 315 0 315 315 0 315 0 0 -315z m1635 -705 c68 -33 129 -99 154 -166 19 -48 21 -77 21 -244 l0 -190 -2210 0 -2210 0 0 189 c0 204 7 241 57 314 30 43 95 91 151 112 31 11 356 13 2012 12 l1975 -2 50 -25z m175 -2140 l0 -1179 -21 -58 c-29 -76 -96 -143 -172 -172 l-58 -21 -1959 0 -1959 0 -58 21 c-76 29 -143 96 -172 172 l-21 58 0 1179 0 1180 2210 0 2210 0 0 -1180z"/>
 </g>

</svg>