<?xml version="1.0" encoding="UTF-8" standalone="no"?>
<!-- Created with Inkscape (http://www.inkscape.org/) -->

<svg
   xmlns:dc="http://purl.org/dc/elements/1.1/"
   xmlns:cc="http://creativecommons.org/ns#"
   xmlns:rdf="http://www.w3.org/1999/02/22-rdf-syntax-ns#"
   xmlns:svg="http://www.w3.org/2000/svg"
   xmlns="http://www.w3.org/2000/svg"
   xmlns:sodipodi="http://sodipodi.sourceforge.net/DTD/sodipodi-0.dtd"
   xmlns:inkscape="http://www.inkscape.org/namespaces/inkscape"
   version="1.1"
   id="svg4485"
   width="25"
   height="24.999998"
   viewBox="0 0 25 24.999998"
   sodipodi:docname="footer-button-bg.svg"
   inkscape:version="0.92.1 r15371">
  <metadata
     id="metadata4491">
    <rdf:RDF>
      <cc:Work
         rdf:about="">
        <dc:format>image/svg+xml</dc:format>
        <dc:type
           rdf:resource="http://purl.org/dc/dcmitype/StillImage" />
        <dc:title></dc:title>
      </cc:Work>
    </rdf:RDF>
  </metadata>
  <defs
     id="defs4489" />
  <sodipodi:namedview
     pagecolor="#ffffff"
     bordercolor="#666666"
     borderopacity="1"
     objecttolerance="10"
     gridtolerance="10"
     guidetolerance="10"
     inkscape:pageopacity="0"
     inkscape:pageshadow="2"
     inkscape:window-width="1920"
     inkscape:window-height="1017"
     id="namedview4487"
     showgrid="false"
     inkscape:zoom="1.2246093"
     inkscape:cx="214.68457"
     inkscape:cy="26.439277"
     inkscape:window-x="-8"
     inkscape:window-y="-8"
     inkscape:window-maximized="1"
     inkscape:current-layer="svg4485" />
  <path
     style="fill:#000000;stroke-width:0.04898551"
     d="M 12.196531,24.60401 C 12.065989,24.36433 11.015021,22.43813 9.8610485,20.32357 L 7.7629153,16.47893 3.8759692,14.15135 C 1.7381489,12.87119 -0.00603035,11.80698 1.567114e-5,11.78644 0.01889893,11.7223 24.219431,0.03384033 24.391065,0.00597033 c 0.344301,-0.0559 0.661173,0.28983 0.601705,0.65653 C 24.96909,0.80849033 12.584322,24.88396 12.474238,24.99799 c -0.0222,0.023 -0.147165,-0.1543 -0.277707,-0.39398 z m 4.940524,-11.65319 c 2.492026,-4.7972497 4.580252,-8.8214997 4.640503,-8.9427697 0.108551,-0.21851 0.105596,-0.2167 -0.324732,0.19829 -0.238855,0.23034 -3.062108,2.90561 -6.273898,5.9450497 -3.211789,3.03945 -5.8396166,5.53669 -5.8396166,5.54943 0,0.0805 1.0077746,2.13658 1.9722986,4.02395 l 1.132883,2.21682 0.0808,-0.13426 c 0.04444,-0.0738 2.119733,-4.05927 4.611759,-8.85651 z M 14.792088,9.0552003 c 3.406575,-3.19367 6.188139,-5.81232 6.181255,-5.81922 -0.0069,-0.007 -3.866899,1.8315 -8.57781,4.08534 C 7.6846211,9.5751503 3.6563341,11.49991 3.4437842,11.59857 l -0.3864548,0.17937 2.7125075,1.55335 c 1.4918792,0.85434 2.738601,1.54823 2.770493,1.54197 0.031892,-0.006 2.8451831,-2.62439 6.2517581,-5.8180597 z"
     id="path4495"
     inkscape:connector-curvature="0" />
</svg>
