<?xml version="1.0" encoding="UTF-8" standalone="no"?>
<!-- Created with Inkscape (http://www.inkscape.org/) -->

<svg
   xmlns:dc="http://purl.org/dc/elements/1.1/"
   xmlns:cc="http://creativecommons.org/ns#"
   xmlns:rdf="http://www.w3.org/1999/02/22-rdf-syntax-ns#"
   xmlns:svg="http://www.w3.org/2000/svg"
   xmlns="http://www.w3.org/2000/svg"
   xmlns:xlink="http://www.w3.org/1999/xlink"
   xmlns:sodipodi="http://sodipodi.sourceforge.net/DTD/sodipodi-0.dtd"
   xmlns:inkscape="http://www.inkscape.org/namespaces/inkscape"
   version="1.1"
   id="svg4569"
   width="382.66669"
   height="683.06158"
   viewBox="0 0 382.66669 683.06159"
   sodipodi:docname="icon-phone.png"
   inkscape:version="0.92.1 r15371">
  <metadata
     id="metadata4575">
    <rdf:RDF>
      <cc:Work
         rdf:about="">
        <dc:format>image/svg+xml</dc:format>
        <dc:type
           rdf:resource="http://purl.org/dc/dcmitype/StillImage" />
        <dc:title></dc:title>
      </cc:Work>
    </rdf:RDF>
  </metadata>
  <defs
     id="defs4573">
    <linearGradient
       inkscape:collect="always"
       id="linearGradient4585">
      <stop
         style="stop-color:#00e0d0;stop-opacity:1"
         offset="0"
         id="stop4581" />
      <stop
         style="stop-color:#4aa3cc;stop-opacity:1"
         offset="1"
         id="stop4583" />
    </linearGradient>
    <linearGradient
       inkscape:collect="always"
       xlink:href="#linearGradient4585"
       id="linearGradient4587"
       x1="0"
       y1="341.5308"
       x2="382.66668"
       y2="341.5308"
       gradientUnits="userSpaceOnUse" />
  </defs>
  <sodipodi:namedview
     pagecolor="#ffffff"
     bordercolor="#666666"
     borderopacity="1"
     objecttolerance="10"
     gridtolerance="10"
     guidetolerance="10"
     inkscape:pageopacity="0"
     inkscape:pageshadow="2"
     inkscape:window-width="1920"
     inkscape:window-height="1017"
     id="namedview4571"
     showgrid="false"
     inkscape:zoom="1.2231445"
     inkscape:cx="139.52495"
     inkscape:cy="345.55521"
     inkscape:window-x="-8"
     inkscape:window-y="-8"
     inkscape:window-maximized="1"
     inkscape:current-layer="svg4569" />
  <path
     style="fill:url(#linearGradient4587);stroke-width:1.33333337;fill-opacity:1"
     d="M 66.9002,680.7579 C 37.23298,674.39316 14.54252,654.07127 3.57255,624.04077 L 0,614.26088 V 341.5942 68.927536 l 3.57255,-9.779899 c 11.12943,-30.467 33.79688,-50.5175145 64.21369,-56.8002805 15.15238,-3.12980865 231.94183,-3.12980865 247.0942,0 30.41681,6.282766 53.08427,26.3332805 64.21369,56.8002805 l 3.57255,9.779899 V 341.5942 614.26088 l -3.57255,9.77989 c -11.12942,30.46701 -33.79688,50.51753 -64.21369,56.80029 -14.57644,3.01085 -233.90133,2.93729 -247.98024,-0.0832 z m 249.09981,-44.4652 c 8.49976,-4.20933 16.48916,-12.19873 20.69848,-20.69849 l 3.30152,-6.66666 0.37862,-69.66667 0.37862,-69.66667 H 191.37862 42 v 67.12143 c 0,52.83193 0.387,68.40733 1.81786,73.16169 3.84653,12.78108 15.38652,24.51175 28.04388,28.5073 4.33205,1.36749 29.63035,1.67331 121.4716,1.4684 l 116.00001,-0.25881 z M 181.33334,596.43109 c -11.62727,-3.07376 -21.61511,-11.00478 -27.42353,-21.77616 -4.14328,-7.68344 -4.52424,-9.35349 -4.50007,-19.72738 0.0216,-9.25982 0.59833,-12.43108 3.15243,-17.33334 5.52914,-10.61245 10.49734,-15.69809 19.81832,-20.2868 7.67293,-3.77737 10.2801,-4.37987 18.95285,-4.37987 8.67275,0 11.27992,0.6025 18.95286,4.37987 9.32097,4.58871 14.28917,9.67435 19.81832,20.2868 2.55409,4.90226 3.13085,8.07352 3.15242,17.33334 0.0241,10.37389 -0.35678,12.04394 -4.50006,19.72738 -7.28688,13.51308 -19.52652,21.41747 -34.54194,22.30727 -4.88488,0.28948 -10.6816,0.0505 -12.8816,-0.53111 z M 340.66668,288.26087 V 149.5942 H 191.33334 42 V 288.26087 426.92754 H 191.33334 340.66668 Z M 340.40539,90.594203 c -0.45548,-13.892344 -1.01919,-17.329656 -3.77196,-23 -4.10623,-8.458285 -12.0906,-16.46784 -20.63342,-20.69848 l -6.66666,-3.301521 h -118.00001 -118 l -6.6319,3.263472 c -8.46694,4.16648 -16.6161,12.320451 -20.75904,20.771302 -2.78872,5.6885 -3.31988,8.955326 -3.7339,22.965227 l -0.4827,16.333327 h 149.60754 149.60754 z"
     id="path4579"
     inkscape:connector-curvature="0" />
</svg>
