<?xml version="1.0" encoding="UTF-8" standalone="no"?>
<!-- Created with Inkscape (http://www.inkscape.org/) -->

<svg
   xmlns:dc="http://purl.org/dc/elements/1.1/"
   xmlns:cc="http://creativecommons.org/ns#"
   xmlns:rdf="http://www.w3.org/1999/02/22-rdf-syntax-ns#"
   xmlns:svg="http://www.w3.org/2000/svg"
   xmlns="http://www.w3.org/2000/svg"
   xmlns:xlink="http://www.w3.org/1999/xlink"
   xmlns:sodipodi="http://sodipodi.sourceforge.net/DTD/sodipodi-0.dtd"
   xmlns:inkscape="http://www.inkscape.org/namespaces/inkscape"
   version="1.1"
   id="svg4524"
   width="682.67987"
   height="839.93665"
   viewBox="0 0 682.67987 839.93665"
   sodipodi:docname="icon-games.png"
   inkscape:version="0.92.1 r15371">
  <metadata
     id="metadata4530">
    <rdf:RDF>
      <cc:Work
         rdf:about="">
        <dc:format>image/svg+xml</dc:format>
        <dc:type
           rdf:resource="http://purl.org/dc/dcmitype/StillImage" />
        <dc:title></dc:title>
      </cc:Work>
    </rdf:RDF>
  </metadata>
  <defs
     id="defs4528">
    <linearGradient
       inkscape:collect="always"
       id="linearGradient5083">
      <stop
         style="stop-color:#00e0d0;stop-opacity:1"
         offset="0"
         id="stop5079" />
      <stop
         style="stop-color:#4aa3cc;stop-opacity:1"
         offset="1"
         id="stop5081" />
    </linearGradient>
    <linearGradient
       inkscape:collect="always"
       xlink:href="#linearGradient5083"
       id="linearGradient5085"
       x1="-4.0371333e-009"
       y1="419.96833"
       x2="682.67985"
       y2="419.96833"
       gradientUnits="userSpaceOnUse" />
  </defs>
  <sodipodi:namedview
     pagecolor="#ffffff"
     bordercolor="#666666"
     borderopacity="1"
     objecttolerance="10"
     gridtolerance="10"
     guidetolerance="10"
     inkscape:pageopacity="0"
     inkscape:pageshadow="2"
     inkscape:window-width="1920"
     inkscape:window-height="1017"
     id="namedview4526"
     showgrid="false"
     inkscape:zoom="0.56190476"
     inkscape:cx="67.676739"
     inkscape:cy="435.74806"
     inkscape:window-x="-8"
     inkscape:window-y="-8"
     inkscape:window-maximized="1"
     inkscape:current-layer="svg4524" />
  <path
     style="fill:url(#linearGradient5085);stroke-width:1.33333337;fill-opacity:1"
     d="M 84.838366,837.81952 C 41.880636,828.60745 10.973196,797.43511 2.1203563,754.39255 0.22488632,745.17672 0.00659632,710.64495 0.00659632,420.003 c 0,-356.104997 -0.53013,-332.38105 7.91461998,-354.187809 C 17.838516,40.205882 41.149776,17.145978 66.930566,7.4421153 c 20.77464,-7.81955297 6.74164,-7.43912397 274.409374,-7.43912397 267.66775,0 253.63475,-0.380429 274.40939,7.43912397 25.78082,9.7038627 49.09202,32.7637667 59.00932,58.3730757 8.4448,21.806759 7.9146,-1.917188 7.9146,354.187809 0,356.10499 0.5302,332.38104 -7.9146,354.1878 -9.9173,25.60931 -33.2285,48.66921 -59.00932,58.37308 -20.79642,7.82775 -6.56974,7.449 -275.35317,7.33041 C 128.59559,839.80089 92.719536,839.5096 84.838366,837.81952 Z M 585.33995,786.60967 c 22.78542,-3.61023 40.32978,-21.15459 43.94,-43.94 1.9032,-12.01192 1.9032,-633.32142 0,-645.333345 -3.61022,-22.785407 -21.15458,-40.329777 -43.94,-43.940002 -11.96652,-1.896032 -476.03349,-1.896032 -488.000014,0 -22.78541,3.610225 -40.32978,21.154595 -43.94,43.940002 -1.90323,12.011925 -1.90323,633.321425 0,645.333345 3.51042,22.15553 21.15533,40.30266 42.60667,43.81937 10.637004,1.74381 478.361124,1.85912 489.333344,0.12067 z M 172.51849,732.19285 c -6.4705,-3.02562 -11.67827,-9.43009 -13.70684,-16.85652 -0.80127,-2.93333 -1.46019,-11.48333 -1.46427,-19 l -0.007,-13.66666 h -14.46771 c -7.95723,0 -16.50723,-0.68287 -19,-1.51747 -21.19784,-7.09731 -25.100564,-34.01656 -6.7564,-46.60277 4.26569,-2.92675 6.25499,-3.25179 22.32227,-3.6473 l 17.63924,-0.4342 0.47392,-16.89913 c 0.42215,-15.053 0.83549,-17.53247 3.78364,-22.69655 8.03511,-14.07457 27.24676,-17.30697 39.40683,-6.63029 7.27649,6.38885 7.87416,8.31893 8.59629,27.76104 l 0.66859,18 18.21413,0.66667 c 17.86954,0.65405 18.31098,0.7438 23.33334,4.74396 6.17818,4.92073 11.1192,14.0792 11.1192,20.6101 0,7.9596 -5.97816,18.12831 -13.1289,22.33194 -5.72349,3.36461 -7.52221,3.68354 -23.20444,4.11456 l -17,0.46724 v 16.1118 c 0,13.47952 -0.44333,17.0276 -2.71356,21.71726 -5.76567,11.91027 -21.67501,17.24 -34.10789,11.42632 z m 210.82146,0.38428 c -13.54935,-7.03246 -19.20074,-22.4724 -12.79643,-34.96058 10.23961,-19.96688 37.65352,-19.7412 46.94304,0.38645 6.15693,13.34028 -0.0241,28.85184 -13.78865,34.60303 -6.31652,2.63921 -15.24178,2.62654 -20.35796,-0.0289 z m 130.51188,-0.38428 c -6.78256,-3.17154 -11.82839,-9.60156 -13.85159,-17.65137 -3.88953,-15.47552 8.7766,-31.87181 24.62096,-31.87181 7.47887,0 17.91206,5.4289 21.97602,11.4352 4.68617,6.9259 5.34871,18.42728 1.5174,26.3417 -5.9252,12.23983 -21.66646,17.63639 -34.26279,11.74628 z M 408.67328,627.11607 c -11.52476,-6.08938 -16.63263,-17.523 -13.39839,-29.99135 4.83216,-18.62844 27.06755,-25.52551 41.484,-12.86769 14.52398,12.75221 11.68777,34.16422 -5.68606,42.92709 -5.41523,2.73129 -17.16911,2.69557 -22.39955,-0.068 z m 131.91506,0.40913 c -5.38886,-2.44217 -13.39486,-11.92121 -14.42687,-17.08129 -2.14575,-10.72868 1.34644,-21.22419 9.00579,-27.06626 18.30339,-13.96066 43.78193,-0.13133 41.88568,22.73494 -0.6728,8.11313 -4.47152,14.53137 -11.41753,19.29085 -5.64131,3.86549 -18.74923,4.97587 -25.04707,2.12176 z M 149.04723,523.96252 c -14.15557,-2.38487 -29.23368,-12.56251 -36.18562,-24.42508 -7.93322,-13.53703 -7.59534,-4.74341 -7.20867,-187.61224 l 0.35366,-167.25553 4.10909,-8.67048 c 5.26382,-11.1071 14.78,-20.62328 25.8871,-25.88711 l 8.67048,-4.10908 h 196.66667 196.66668 l 8.67048,4.10908 c 11.10709,5.26383 20.62328,14.78001 25.88711,25.88711 l 4.10908,8.67048 0.35365,167.25553 c 0.31839,150.57023 0.13923,167.99317 -1.79589,174.64976 -5.84083,20.09175 -21.75752,34.02915 -42.79674,37.47487 -9.43175,1.54468 -374.19326,1.46162 -383.38708,-0.0873 z M 510.55868,469.3948 c 6.44671,-3.28887 11.61366,-9.37321 13.38926,-15.76653 0.9053,-3.25967 1.37969,-51.16078 1.38457,-139.80635 l 0.007,-134.84775 -3.71247,-7.10645 c -3.00536,-5.75292 -5.066,-7.81356 -10.81892,-10.81892 l -7.10645,-3.71247 H 341.33994 178.97778 l -7.10645,3.71247 c -5.75292,3.00536 -7.81356,5.066 -10.81892,10.81892 l -3.71247,7.10645 0.008,134.84775 c 0.005,88.64557 0.47927,136.54668 1.38457,139.80635 1.73852,6.25984 6.86715,12.40512 13.10272,15.70008 4.69182,2.47924 9.82548,2.55858 169.22506,2.61572 160.58814,0.0576 164.50458,-0.001 169.49895,-2.54927 z"
     id="path5077"
     inkscape:connector-curvature="0" />
</svg>
