<?xml version="1.0" encoding="UTF-8" standalone="no"?>
<!-- Created with Inkscape (http://www.inkscape.org/) -->

<svg
   xmlns:dc="http://purl.org/dc/elements/1.1/"
   xmlns:cc="http://creativecommons.org/ns#"
   xmlns:rdf="http://www.w3.org/1999/02/22-rdf-syntax-ns#"
   xmlns:svg="http://www.w3.org/2000/svg"
   xmlns="http://www.w3.org/2000/svg"
   xmlns:xlink="http://www.w3.org/1999/xlink"
   xmlns:sodipodi="http://sodipodi.sourceforge.net/DTD/sodipodi-0.dtd"
   xmlns:inkscape="http://www.inkscape.org/namespaces/inkscape"
   version="1.1"
   id="svg4592"
   width="128"
   height="50"
   viewBox="0 0 128 50"
   sodipodi:docname="logo.svg"
   inkscape:version="0.92.1 r15371">
  <metadata
     id="metadata4598">
    <rdf:RDF>
      <cc:Work
         rdf:about="">
        <dc:format>image/svg+xml</dc:format>
        <dc:type
           rdf:resource="http://purl.org/dc/dcmitype/StillImage" />
      </cc:Work>
    </rdf:RDF>
  </metadata>
  <defs
     id="defs4596">
    <linearGradient
       inkscape:collect="always"
       id="linearGradient5291">
      <stop
         style="stop-color:#00e0d0;stop-opacity:1"
         offset="0"
         id="stop5287" />
      <stop
         style="stop-color:#4aa3cc;stop-opacity:1"
         offset="1"
         id="stop5289" />
    </linearGradient>
    <linearGradient
       inkscape:collect="always"
       xlink:href="#linearGradient5291"
       id="linearGradient5293"
       x1="0.456"
       y1="14.39"
       x2="72.190002"
       y2="14.39"
       gradientUnits="userSpaceOnUse" />
    <linearGradient
       inkscape:collect="always"
       xlink:href="#linearGradient5291"
       id="linearGradient5301"
       x1="36.199581"
       y1="43.073639"
       x2="59.482914"
       y2="43.073639"
       gradientUnits="userSpaceOnUse" />
    <linearGradient
       inkscape:collect="always"
       xlink:href="#linearGradient5291"
       id="linearGradient4516"
       gradientUnits="userSpaceOnUse"
       x1="36.199581"
       y1="43.073639"
       x2="59.482914"
       y2="43.073639" />
    <linearGradient
       inkscape:collect="always"
       xlink:href="#linearGradient5291"
       id="linearGradient4518"
       gradientUnits="userSpaceOnUse"
       x1="36.199581"
       y1="43.073639"
       x2="59.482914"
       y2="43.073639" />
    <linearGradient
       inkscape:collect="always"
       xlink:href="#linearGradient5291"
       id="linearGradient4520"
       gradientUnits="userSpaceOnUse"
       x1="36.199581"
       y1="43.073639"
       x2="59.482914"
       y2="43.073639" />
    <linearGradient
       inkscape:collect="always"
       xlink:href="#linearGradient5291"
       id="linearGradient4522"
       gradientUnits="userSpaceOnUse"
       x1="36.199581"
       y1="43.073639"
       x2="59.482914"
       y2="43.073639" />
    <linearGradient
       inkscape:collect="always"
       xlink:href="#linearGradient5291"
       id="linearGradient4524"
       gradientUnits="userSpaceOnUse"
       x1="36.199581"
       y1="43.073639"
       x2="59.482914"
       y2="43.073639" />
    <linearGradient
       inkscape:collect="always"
       xlink:href="#linearGradient5291"
       id="linearGradient4526"
       gradientUnits="userSpaceOnUse"
       x1="36.199581"
       y1="43.073639"
       x2="59.482914"
       y2="43.073639" />
    <linearGradient
       inkscape:collect="always"
       xlink:href="#linearGradient5291"
       id="linearGradient4528"
       gradientUnits="userSpaceOnUse"
       x1="36.199581"
       y1="43.073639"
       x2="59.482914"
       y2="43.073639" />
    <linearGradient
       inkscape:collect="always"
       xlink:href="#linearGradient5291"
       id="linearGradient4530"
       gradientUnits="userSpaceOnUse"
       x1="36.199581"
       y1="43.073639"
       x2="59.482914"
       y2="43.073639" />
    <linearGradient
       inkscape:collect="always"
       xlink:href="#linearGradient5291"
       id="linearGradient4532"
       gradientUnits="userSpaceOnUse"
       x1="36.199581"
       y1="43.073639"
       x2="59.482914"
       y2="43.073639" />
    <linearGradient
       inkscape:collect="always"
       xlink:href="#linearGradient5291"
       id="linearGradient4534"
       gradientUnits="userSpaceOnUse"
       x1="36.199581"
       y1="43.073639"
       x2="59.482914"
       y2="43.073639" />
    <linearGradient
       inkscape:collect="always"
       xlink:href="#linearGradient5291"
       id="linearGradient4536"
       gradientUnits="userSpaceOnUse"
       x1="36.199581"
       y1="43.073639"
       x2="59.482914"
       y2="43.073639" />
    <linearGradient
       inkscape:collect="always"
       xlink:href="#linearGradient5291"
       id="linearGradient4538"
       gradientUnits="userSpaceOnUse"
       x1="36.199581"
       y1="43.073639"
       x2="59.482914"
       y2="43.073639" />
    <linearGradient
       inkscape:collect="always"
       xlink:href="#linearGradient5291"
       id="linearGradient4540"
       gradientUnits="userSpaceOnUse"
       x1="36.199581"
       y1="43.073639"
       x2="59.482914"
       y2="43.073639" />
    <linearGradient
       inkscape:collect="always"
       xlink:href="#linearGradient5291"
       id="linearGradient4542"
       gradientUnits="userSpaceOnUse"
       x1="36.199581"
       y1="43.073639"
       x2="59.482914"
       y2="43.073639" />
    <linearGradient
       inkscape:collect="always"
       xlink:href="#linearGradient5291"
       id="linearGradient4544"
       gradientUnits="userSpaceOnUse"
       x1="36.199581"
       y1="43.073639"
       x2="59.482914"
       y2="43.073639" />
    <linearGradient
       inkscape:collect="always"
       xlink:href="#linearGradient5291"
       id="linearGradient4546"
       gradientUnits="userSpaceOnUse"
       x1="36.199581"
       y1="43.073639"
       x2="59.482914"
       y2="43.073639" />
    <linearGradient
       inkscape:collect="always"
       xlink:href="#linearGradient5291"
       id="linearGradient4548"
       gradientUnits="userSpaceOnUse"
       x1="36.199581"
       y1="43.073639"
       x2="59.482914"
       y2="43.073639" />
    <linearGradient
       inkscape:collect="always"
       xlink:href="#linearGradient5291"
       id="linearGradient4550"
       gradientUnits="userSpaceOnUse"
       x1="36.199581"
       y1="43.073639"
       x2="59.482914"
       y2="43.073639" />
    <linearGradient
       inkscape:collect="always"
       xlink:href="#linearGradient5291"
       id="linearGradient4552"
       gradientUnits="userSpaceOnUse"
       x1="0.456"
       y1="14.39"
       x2="72.190002"
       y2="14.39" />
    <linearGradient
       inkscape:collect="always"
       xlink:href="#linearGradient5291"
       id="linearGradient4554"
       gradientUnits="userSpaceOnUse"
       x1="0.456"
       y1="14.39"
       x2="72.190002"
       y2="14.39" />
  </defs>
  <sodipodi:namedview
     pagecolor="#ffffff"
     bordercolor="#666666"
     borderopacity="1"
     objecttolerance="10"
     gridtolerance="10"
     guidetolerance="10"
     inkscape:pageopacity="0"
     inkscape:pageshadow="2"
     inkscape:window-width="1920"
     inkscape:window-height="1017"
     id="namedview4594"
     showgrid="false"
     inkscape:zoom="7.2671792"
     inkscape:cx="85.144399"
     inkscape:cy="25.949659"
     inkscape:window-x="-8"
     inkscape:window-y="-8"
     inkscape:window-maximized="1"
     inkscape:current-layer="svg4592" />
  <g
     id="g3702"
     transform="matrix(1.8726904,0,0,1.886867,-67.790608,-56.274229)"
     style="fill:url(#linearGradient5301);fill-opacity:1">
    <path
       style="fill:url(#linearGradient4516);fill-opacity:1;stroke-width:0.35277778"
       d="m 44.646956,53.148116 -2.901831,-3.175 h -2.772772 c -1.525025,0 -2.772772,-0.128203 -2.772772,-0.284895 0,-0.156693 1.202158,-2.339505 2.671463,-4.850695 1.469305,-2.51119 4.036751,-6.904022 5.705436,-9.761849 2.393347,-4.0989 3.132213,-5.114517 3.499238,-4.809914 0.255896,0.212375 1.724052,2.550597 3.262569,5.19605 1.538518,2.645452 4.000452,6.864523 5.470966,9.375713 1.470513,2.51119 2.673661,4.694002 2.673661,4.850695 0,0.156692 -1.247747,0.284895 -2.772772,0.284895 H 53.93737 l -2.901831,3.175 c -1.596007,1.74625 -3.033438,3.175 -3.194291,3.175 -0.160854,0 -1.598285,-1.42875 -3.194292,-3.175 z m 2.81552,-9.260417 -0.02599,-11.024306 -1.050259,3.351389 c -0.577642,1.843264 -1.656784,5.256389 -2.398094,7.584723 -0.74131,2.328333 -1.459727,4.594956 -1.596483,5.036939 -0.207491,0.670597 0.174404,1.239899 2.307319,3.439583 1.40578,1.449788 2.608511,2.635978 2.672734,2.635978 0.06422,0 0.105073,-4.960938 0.09078,-11.024306 z m 5.687588,6.035546 c 0.221458,-0.401439 -0.159167,-2.078555 -1.240987,-5.468055 -0.85823,-2.68896 -2.033514,-6.397144 -2.611742,-8.240408 l -1.051323,-3.351389 -0.02599,11.102309 -0.02599,11.102309 2.318304,-2.282864 c 1.275067,-1.255576 2.462047,-2.543431 2.637735,-2.861902 z m -9.1844,-8.416796 c 1.270135,-4.171597 2.432987,-7.78316 2.584113,-8.025695 0.151128,-0.242534 0.207459,-0.440972 0.125182,-0.440972 -0.08228,0 -0.91571,1.309688 -1.852071,2.910417 -3.458141,5.911764 -7.564974,13.086935 -7.564974,13.216994 0,0.07372 0.989643,0.08677 2.199207,0.02901 l 2.199206,-0.105027 z m 14.458917,7.64391 c 0,-0.116097 -4.283935,-7.591156 -7.564974,-13.20016 -0.936361,-1.600729 -1.76601,-2.910417 -1.843663,-2.910417 -0.07765,0 0.0077,0.278229 0.189709,0.618286 0.181993,0.340058 1.314211,3.872245 2.516039,7.849306 1.201828,3.977061 2.258504,7.350082 2.348168,7.495603 0.154887,0.251373 4.354721,0.393513 4.354721,0.147382 z"
       id="path3738"
       inkscape:connector-curvature="0" />
    <path
       style="fill:url(#linearGradient4518);fill-opacity:1;stroke-width:0.35277778"
       d="m 44.666248,53.148116 -2.89857,-3.175 h -2.821792 c -3.294658,0 -3.25881,0.390427 -0.412856,-4.496503 1.102144,-1.892548 3.175474,-5.46641 4.607398,-7.941915 1.431924,-2.475504 3.061481,-5.223081 3.621238,-6.105726 l 1.017739,-1.604809 1.037695,1.519615 c 0.570732,0.835788 2.228118,3.583365 3.68308,6.105726 1.454962,2.522362 3.547141,6.134561 4.649285,8.027109 2.845954,4.88693 2.881801,4.496503 -0.412856,4.496503 h -2.821792 l -2.89857,3.175 c -1.594213,1.74625 -3.022963,3.175 -3.174999,3.175 -0.152037,0 -1.580787,-1.42875 -3.175,-3.175 z m 2.794371,-9.084028 c -0.0245,-9.852656 -0.08475,-11.030863 -0.500589,-9.789584 -0.260006,0.776111 -1.461009,4.552378 -2.668896,8.391704 l -2.196159,6.980592 2.608553,2.764296 c 1.434704,1.520362 2.64824,2.784408 2.696747,2.808991 0.04851,0.02458 0.07566,-4.995617 0.06034,-11.155999 z m 3.930097,-1.399903 c -1.207532,-3.838213 -2.408245,-7.61357 -2.668251,-8.389681 -0.415917,-1.241502 -0.476085,-0.06971 -0.500589,9.749072 l -0.02785,11.160183 2.696103,-2.770502 2.696102,-2.770502 z m -8.513677,2.456699 c 0.665171,-2.278981 1.794846,-5.934735 2.510387,-8.123897 0.715542,-2.189162 1.227816,-3.907125 1.138387,-3.817696 -0.359207,0.359206 -9.267899,15.656609 -9.267899,15.914208 0,0.09573 0.992188,0.173369 2.204861,0.172524 l 2.204861,-0.0016 1.209403,-4.143602 z m 15.547542,3.972615 c 0,-0.257599 -8.908692,-15.555002 -9.267899,-15.914208 -0.08943,-0.08943 0.422845,1.628534 1.138387,3.817696 0.715541,2.189162 1.845216,5.844916 2.510387,8.123897 l 1.209403,4.143601 2.204861,0.0016 c 1.212673,8.47e-4 2.204861,-0.07679 2.204861,-0.172524 z"
       id="path3736"
       inkscape:connector-curvature="0" />
    <path
       style="fill:url(#linearGradient4520);fill-opacity:1;stroke-width:0.35277778"
       d="m 44.685539,53.148116 -2.901831,-3.175 h -2.829807 c -2.489368,0 -2.802826,-0.07031 -2.605541,-0.584427 0.205515,-0.535563 5.23836,-9.193695 9.452113,-16.260712 0.954445,-1.60073 1.872794,-2.910417 2.040775,-2.910417 0.16798,0 1.086329,1.309687 2.040774,2.910417 4.213753,7.067017 9.246598,15.725149 9.452113,16.260712 0.197285,0.514118 -0.116173,0.584427 -2.605541,0.584427 h -2.829807 l -2.901831,3.175 c -1.596007,1.74625 -3.016076,3.175 -3.155708,3.175 -0.139633,0 -1.559702,-1.42875 -3.155709,-3.175 z m 2.787718,-9.260417 -0.01521,-11.377084 -1.686123,5.468056 c -0.927368,3.007431 -2.140934,6.848107 -2.696813,8.534835 l -1.01069,3.06678 2.623831,2.811011 c 1.443107,1.546056 2.663518,2.825068 2.712025,2.842248 0.04851,0.01718 0.08135,-5.08845 0.07298,-11.345846 z m 5.943866,5.72427 c 0.0593,-0.157175 -0.845282,-3.275529 -2.010184,-6.929675 -1.164902,-3.654145 -2.353301,-7.437651 -2.640887,-8.40779 -0.488655,-1.648424 -0.524492,-1.019072 -0.547455,9.614258 l -0.02457,11.378148 2.557639,-2.684584 c 1.406701,-1.476521 2.606158,-2.813181 2.665459,-2.970357 z M 42.543316,46.357144 c 0.456985,-1.60073 1.578194,-5.25198 2.491575,-8.11389 0.913382,-2.861909 1.623281,-5.203472 1.577554,-5.203472 -0.04573,0 -1.320696,2.103438 -2.833264,4.674306 -1.512568,2.570868 -3.661736,6.222118 -4.77593,8.113889 l -2.025807,3.439583 h 2.367495 2.367495 z m 14.135928,-0.529167 c -1.114194,-1.891771 -3.263362,-5.543021 -4.77593,-8.113889 -1.512568,-2.570868 -2.787537,-4.674306 -2.833264,-4.674306 -0.04573,0 0.664172,2.341563 1.577554,5.203472 0.913381,2.86191 2.03459,6.51316 2.491575,8.11389 l 0.830882,2.910416 h 2.367495 2.367495 z"
       id="path3734"
       inkscape:connector-curvature="0" />
    <path
       style="fill:url(#linearGradient4522);fill-opacity:1;stroke-width:0.35277778"
       d="m 44.704893,53.148116 -2.911637,-3.175 h -2.834581 c -2.544431,0 -2.810559,-0.0626 -2.599901,-0.611566 0.129074,-0.336361 1.596647,-2.916049 3.261273,-5.732639 1.664626,-2.81659 4.129903,-6.986386 5.478395,-9.266212 1.348491,-2.279827 2.582753,-4.145139 2.742806,-4.145139 0.160052,0 1.394314,1.865312 2.742805,4.145139 1.348492,2.279826 3.813769,6.449622 5.478395,9.266212 1.664626,2.81659 3.132199,5.396278 3.261273,5.732639 0.210658,0.548966 -0.05547,0.611566 -2.599901,0.611566 h -2.834581 l -2.911637,3.175 c -1.6014,1.74625 -3.01276,3.175 -3.136354,3.175 -0.123595,0 -1.534955,-1.42875 -3.136355,-3.175 z m 2.769198,-9.260417 -0.01438,-11.377084 -1.56938,4.938889 c -0.863159,2.716389 -2.071483,6.557025 -2.685165,8.534745 l -1.115786,3.595857 2.61135,2.822987 c 1.436242,1.552642 2.651037,2.831695 2.699544,2.842338 0.04851,0.01064 0.08172,-5.100336 0.07382,-11.357732 z m 5.951611,5.689193 c 0.08517,-0.221094 -3.757441,-12.925739 -5.055115,-16.713499 -0.06647,-0.194028 -0.133393,4.782992 -0.148711,11.060044 l -0.02785,11.412822 2.557639,-2.7286 c 1.406701,-1.500729 2.610018,-2.864575 2.674038,-3.030767 z M 42.020567,48.208529 c 0.127932,-0.582467 1.227627,-4.233717 2.443769,-8.113889 1.216141,-3.880172 2.17233,-7.054858 2.124865,-7.054858 -0.04747,0 -1.555006,2.500313 -3.350089,5.55625 -1.795084,3.055938 -3.951162,6.707188 -4.791285,8.113889 L 36.92033,49.26756 h 2.433818 c 2.417757,0 2.435352,-0.007 2.666419,-1.059031 z M 57.234668,46.709921 C 56.394545,45.30322 54.238467,41.65197 52.443383,38.596032 50.6483,35.540095 49.14076,33.039782 49.093294,33.039782 c -0.04747,0 0.908724,3.174686 2.124865,7.054858 1.216142,3.880172 2.315837,7.531422 2.443769,8.113889 0.231067,1.052043 0.248662,1.059031 2.666419,1.059031 h 2.433818 z"
       id="path3732"
       inkscape:connector-curvature="0" />
    <path
       style="fill:url(#linearGradient4524);fill-opacity:1;stroke-width:0.35277778"
       d="M 44.728849,53.14294 41.79284,49.973116 h -2.79663 c -1.538146,0 -2.796629,-0.101012 -2.796629,-0.224471 0,-0.123458 1.366223,-2.544396 3.03605,-5.379861 1.669828,-2.835465 4.228082,-7.179453 5.685009,-9.653307 1.456927,-2.473855 2.7712,-4.497917 2.920608,-4.497917 0.149407,0 1.46368,2.024062 2.920607,4.497917 1.456927,2.473854 4.015181,6.817842 5.685009,9.653307 1.669827,2.835465 3.03605,5.256403 3.03605,5.379861 0,0.123459 -1.256776,0.224471 -2.792835,0.224471 h -2.792835 l -2.962668,3.175 c -1.629468,1.74625 -3.031755,3.172671 -3.116193,3.169824 -0.08444,-0.0029 -1.474729,-1.431597 -3.089534,-3.175 z m 2.680165,-14.82684 -0.09693,-5.659794 -1.495588,4.866043 c -0.822573,2.676325 -2.001456,6.480158 -2.619739,8.452964 l -1.124151,3.58692 2.619739,2.791331 2.619739,2.791332 0.09693,-5.584501 c 0.05331,-3.071476 0.05331,-8.131409 0,-11.244295 z m 6.021014,11.247813 C 53.524353,49.31768 50.171309,38.213478 48.546899,33.39256 48.37277,32.875781 48.238196,37.236054 48.221876,43.923437 l -0.02785,11.412822 2.557639,-2.7286 c 1.406701,-1.500729 2.611965,-2.870415 2.678364,-3.043746 z M 42.364962,47.079596 c 0.328887,-1.172144 1.395903,-4.612179 2.371148,-7.644521 0.975243,-3.032342 1.85003,-5.830848 1.943969,-6.218904 0.09394,-0.388056 -1.055337,1.358194 -2.553948,3.880556 -1.498611,2.522361 -3.717605,6.252986 -4.931098,8.290278 -1.213492,2.037291 -2.161351,3.783541 -2.106353,3.880555 0.055,0.09701 1.130117,0.123923 2.389152,0.0598 l 2.289154,-0.116591 z m 15.8278,1.185158 c -0.342614,-0.515609 -1.916,-3.159972 -3.496414,-5.876361 -4.459717,-7.665284 -5.869323,-9.937892 -5.689155,-9.172222 0.09131,0.388056 0.963949,3.186562 1.939192,6.218904 0.975245,3.032342 2.043859,6.478071 2.374699,7.657176 l 0.601527,2.143826 2.16279,0.103936 c 1.189535,0.05716 2.290479,0.04955 2.446543,-0.01693 0.156064,-0.06647 0.0034,-0.542724 -0.339182,-1.058334 z"
       id="path3730"
       inkscape:connector-curvature="0" />
    <path
       style="fill:url(#linearGradient4526);fill-opacity:1;stroke-width:0.35277778"
       d="m 44.645719,52.971727 -2.934056,-2.998611 h -2.756041 c -1.515823,0 -2.756041,-0.09652 -2.756041,-0.214486 0,-0.117967 1.690038,-3.09453 3.75564,-6.614583 5.804606,-9.8918 6.186424,-10.510349 6.37279,-10.323982 0.09594,0.09594 -0.849398,1.891185 -2.10075,3.989437 -4.32472,7.251637 -7.322124,12.422962 -7.322124,12.632624 0,0.115747 1.05891,0.163508 2.353134,0.106136 l 2.353135,-0.104313 0.440568,-1.411111 c 0.242312,-0.776111 1.412127,-4.472136 2.599587,-8.213388 1.187461,-3.741252 2.066932,-6.951278 1.954381,-7.13339 -0.240185,-0.388627 0.765265,-2.4685 1.19332,-2.4685 0.16097,0 1.532904,2.103437 3.048743,4.674305 1.515838,2.570869 4.078809,6.914857 5.695489,9.653308 1.616681,2.738451 2.93942,5.080014 2.93942,5.203472 0,0.123459 -1.240218,0.224471 -2.756041,0.224471 h -2.756041 l -2.934056,2.998611 c -1.613731,1.649236 -3.051719,2.998611 -3.195528,2.998611 -0.14381,0 -1.581798,-1.349375 -3.195529,-2.998611 z M 47.66997,43.81125 c 0.0028,-6.298582 -0.09061,-11.338543 -0.207593,-11.199912 -0.195282,0.231409 -3.574085,10.840593 -4.821322,15.13858 l -0.532136,1.833748 2.601581,2.831546 c 1.430869,1.557351 2.680956,2.835249 2.77797,2.839775 0.09701,0.0045 0.178688,-5.145155 0.1815,-11.443737 z m 5.799202,5.602701 c 0.0091,-0.210526 -1.010481,-3.619199 -2.265704,-7.57483 -1.255222,-3.95563 -2.364604,-7.672756 -2.465292,-8.26028 -0.282555,-1.648736 0.724184,1.203555 3.171663,8.985941 l 2.163425,6.879167 2.352047,0.104313 c 1.293626,0.05737 2.352047,0.01409 2.352047,-0.09619 0,-0.161061 -4.726044,-8.307278 -9.163158,-15.794407 -0.43103,-0.727316 -0.9269,-1.233884 -1.101933,-1.125708 -0.178443,0.110284 -0.318242,5.171374 -0.318242,11.52121 v 11.324527 l 2.629313,-2.790485 c 1.446123,-1.534767 2.636747,-2.962734 2.645834,-3.173261 z"
       id="path3728"
       inkscape:connector-curvature="0" />
    <path
       style="fill:url(#linearGradient4528);fill-opacity:1;stroke-width:0.35277778"
       d="m 44.686751,52.971727 -2.926872,-2.998611 h -2.544964 c -1.39973,0 -2.636527,-0.09156 -2.748438,-0.203475 -0.111911,-0.111911 0.599494,-1.580349 1.5809,-3.263195 3.156003,-5.41169 6.485259,-11.105544 8.028805,-13.731247 0.826944,-1.406702 1.621223,-2.557639 1.765066,-2.557639 0.143842,0 0.938121,1.150937 1.765065,2.557639 1.543546,2.625703 4.872802,8.319557 8.028805,13.731247 0.981406,1.682846 1.692811,3.151284 1.5809,3.263195 -0.111911,0.111911 -1.348708,0.203475 -2.748438,0.203475 h -2.544964 l -2.926872,2.998611 c -1.609779,1.649236 -3.029303,2.998611 -3.154496,2.998611 -0.125194,0 -1.544718,-1.349375 -3.154497,-2.998611 z m 3.235331,-9.084028 0.08083,-11.377084 0.183749,11.376894 0.183748,11.376893 2.584769,-2.826131 c 3.040469,-3.324384 3.057185,-2.017375 -0.154581,-12.08621 -1.245889,-3.905841 -2.216834,-7.246785 -2.157656,-7.424319 0.05918,-0.177533 1.025731,2.592861 2.147895,6.156432 1.122165,3.563571 2.319288,7.352345 2.660274,8.419497 l 0.619974,1.940278 2.353135,0.104313 c 1.294224,0.05737 2.353134,0.0096 2.353134,-0.106136 0,-0.196308 -1.304752,-2.456043 -7.497869,-12.985754 -1.348333,-2.292473 -2.539859,-4.079788 -2.647835,-3.971811 -0.107977,0.107977 -0.391894,0.03401 -0.630926,-0.164367 -0.3319,-0.275452 -0.896853,1.079989 -2.390663,5.735699 -1.075833,3.353014 -2.310554,7.309098 -2.743825,8.791298 l -0.787765,2.694908 2.616803,2.861152 c 1.439242,1.573634 2.735865,2.861238 2.881386,2.861342 0.145521,1.04e-4 0.300959,-5.119498 0.345418,-11.376894 z m -5.693934,3.615972 c 3.916339,-12.320836 4.800359,-15.169444 4.707594,-15.169444 -0.178033,0 -10.030605,16.80425 -10.030605,17.107899 0,0.115747 1.05891,0.163508 2.353134,0.106136 l 2.353135,-0.104313 z"
       id="path3726"
       inkscape:connector-curvature="0" />
    <path
       style="fill:url(#linearGradient4530);fill-opacity:1;stroke-width:0.35277778"
       d="m 44.706921,52.971727 -2.878786,-2.998611 -2.373305,-0.0054 c -1.305317,-0.003 -2.547872,-0.122034 -2.761233,-0.264584 -0.253229,-0.169186 0.665474,-2.043284 2.645834,-5.397341 1.668569,-2.825989 4.216725,-7.151926 5.662571,-9.613195 1.445845,-2.461269 2.723505,-4.475034 2.839246,-4.475034 0.11574,0 1.3934,2.013765 2.839245,4.475034 1.445846,2.461269 3.994002,6.787206 5.662571,9.613195 1.98036,3.354057 2.899063,5.228155 2.645833,5.397341 -0.21336,0.14255 -1.455915,0.261613 -2.761232,0.264584 l -2.373305,0.0054 -2.878786,2.998611 c -1.583333,1.649236 -2.99378,2.998611 -3.134326,2.998611 -0.140547,0 -1.550994,-1.349375 -3.134327,-2.998611 z m 6.259061,-0.497481 c 1.38584,-1.534795 2.51971,-3.011042 2.51971,-3.280548 0,-0.269506 -1.114369,-3.965346 -2.476375,-8.212978 -1.362006,-4.247632 -2.433569,-7.851111 -2.38125,-8.007731 0.05232,-0.15662 1.295973,3.485274 2.763677,8.093098 l 2.668553,8.377862 2.358531,0.104313 c 1.297191,0.05737 2.35853,-0.01301 2.35853,-0.156414 0,-0.244408 -2.43167,-4.451002 -7.643942,-13.223408 -1.225636,-2.06278 -2.507458,-3.822881 -2.848493,-3.911334 -1.318763,-0.342043 -0.964219,-0.843599 -8.672029,12.267929 -1.489267,2.533348 -2.707757,4.723414 -2.707757,4.866813 0,0.1434 1.061338,0.213786 2.35853,0.156414 l 2.358531,-0.104313 2.668553,-8.377862 c 1.467704,-4.607824 2.711358,-8.249718 2.763677,-8.093098 0.05232,0.15662 -1.019244,3.760099 -2.38125,8.007731 -1.362006,4.247632 -2.476375,7.943472 -2.476375,8.212978 0,0.743758 4.952954,6.071085 5.644445,6.071085 0.332762,0 1.738893,-1.255742 3.124734,-2.790537 z M 47.99838,43.975893 c 0,-6.111875 0.04805,-8.612187 0.106781,-5.55625 0.05873,3.055938 0.05873,8.056563 0,11.112501 -0.05873,3.055937 -0.106781,0.555625 -0.106781,-5.556251 z"
       id="path3724"
       inkscape:connector-curvature="0" />
    <path
       style="fill:url(#linearGradient4532);fill-opacity:1;stroke-width:0.35277778"
       d="m 44.706921,52.971727 -2.878786,-2.998611 h -2.440679 c -1.342374,0 -2.535911,-0.154088 -2.652305,-0.342418 -0.206435,-0.334019 0.719483,-2.479804 1.070049,-2.479804 0.09701,0 -0.06581,0.468366 -0.361837,1.040814 -0.296025,0.572448 -0.538226,1.128073 -0.538226,1.234722 0,0.10665 1.036857,0.193908 2.304127,0.193908 1.868833,0 2.348952,-0.116631 2.541397,-0.617361 0.208847,-0.543408 0.260345,-0.525436 0.4299,0.150027 0.285179,1.136076 4.89364,6.111779 5.660687,6.111779 0.767046,0 5.375507,-4.975703 5.660686,-6.111779 0.169555,-0.675463 0.221053,-0.693435 0.4299,-0.150027 0.192445,0.50073 0.672564,0.617361 2.541397,0.617361 1.26727,0 2.304127,-0.08726 2.304127,-0.193908 0,-0.106649 -0.242201,-0.662274 -0.538226,-1.234722 -0.296024,-0.572448 -0.458851,-1.040814 -0.361837,-1.040814 0.350566,0 1.276484,2.145785 1.070049,2.479804 -0.116394,0.18833 -1.309931,0.342418 -2.652305,0.342418 H 53.85436 l -2.878786,2.998611 c -1.583333,1.649236 -2.99378,2.998611 -3.134326,2.998611 -0.140547,0 -1.550994,-1.349375 -3.134327,-2.998611 z m -2.460528,-5.115278 c 0,-0.291042 0.136435,-0.846667 0.303188,-1.234722 0.191105,-0.444726 0.303187,-0.509933 0.303187,-0.176389 0,0.291042 -0.136434,0.846667 -0.303187,1.234722 -0.191105,0.444726 -0.303188,0.509933 -0.303188,0.176389 z m 10.735331,-0.554365 c -0.129759,-0.517001 -0.16789,-1.008037 -0.08474,-1.091191 0.08316,-0.08315 0.257357,0.27181 0.387115,0.78881 0.129759,0.517001 0.16789,1.008037 0.08474,1.091191 -0.08315,0.08315 -0.257357,-0.27181 -0.387115,-0.78881 z M 38.369281,46.09256 c 0.294384,-0.485069 1.217933,-2.072569 2.052332,-3.527778 3.116444,-5.435142 5.377107,-9.172222 5.548529,-9.172222 0.0973,0 -0.179945,0.595312 -0.616099,1.322917 -0.436154,0.727604 -2.127049,3.624791 -3.757544,6.438194 -1.630496,2.813403 -3.14407,5.274028 -3.363499,5.468056 -0.219429,0.194028 -0.158103,-0.0441 0.136281,-0.529167 z m 17.020551,-2.734028 c -1.099722,-1.891771 -2.793683,-4.788958 -3.764356,-6.438194 -0.970674,-1.649236 -1.831713,-3.117674 -1.91342,-3.263195 -0.08171,-0.145521 -0.07526,-0.264583 0.01432,-0.264583 0.159129,0 2.494153,3.869789 5.534503,9.172222 0.834398,1.455209 1.747084,3.003021 2.028189,3.439584 0.281105,0.436562 0.41866,0.79375 0.305679,0.79375 -0.112982,0 -1.105195,-1.547813 -2.204918,-3.439584 z m -12.085105,0.970139 c 0,-0.291041 0.136434,-0.846666 0.303187,-1.234722 0.191105,-0.444725 0.303188,-0.509933 0.303188,-0.176389 0,0.291042 -0.136435,0.846667 -0.303188,1.234722 -0.191105,0.444726 -0.303187,0.509933 -0.303187,0.176389 z m 8.618663,-0.554365 c -0.129759,-0.517 -0.167889,-1.008036 -0.08473,-1.091191 0.08315,-0.08315 0.257356,0.27181 0.387115,0.78881 0.129759,0.517001 0.16789,1.008037 0.08473,1.091191 -0.08315,0.08315 -0.257357,-0.27181 -0.387115,-0.78881 z m -5.463057,-9.323413 c -0.01067,-0.291041 0.134496,-0.767291 0.322581,-1.058333 0.416744,-0.644866 0.416744,-0.08787 0,0.881944 -0.199913,0.465223 -0.309793,0.525306 -0.322581,0.176389 z m 2.467099,0.117047 c -0.01532,-0.226665 -0.119213,-0.702915 -0.230877,-1.058333 -0.192987,-0.614263 -0.183032,-0.615033 0.201357,-0.01556 0.22241,0.346859 0.326304,0.823109 0.230876,1.058333 -0.125228,0.30868 -0.181255,0.31301 -0.201356,0.01556 z M 46.80491,31.664956 c 0.447415,-0.796068 0.913767,-1.447396 1.036338,-1.447396 0.12257,0 0.588922,0.651328 1.036337,1.447396 l 0.813482,1.447395 -0.92491,-0.606024 c -0.874275,-0.572847 -0.975544,-0.572847 -1.849819,0 l -0.92491,0.606024 z"
       id="path3722"
       inkscape:connector-curvature="0" />
    <path
       style="fill:url(#linearGradient4534);fill-opacity:1;stroke-width:0.35277778"
       d="m 44.531305,52.778523 c -2.493317,-2.603874 -2.991794,-3.302438 -2.706126,-3.792362 0.311307,-0.533896 0.35136,-0.517973 0.360897,0.143479 0.0063,0.436654 1.168558,1.966913 2.813388,3.704166 l 2.80266,2.960143 2.841784,-2.941572 c 1.737078,-1.798075 2.845954,-3.238021 2.852511,-3.704167 0.0095,-0.673839 0.05148,-0.692699 0.360897,-0.162049 0.285668,0.489924 -0.212809,1.188488 -2.706126,3.792362 -1.680963,1.755498 -3.170437,3.191815 -3.309942,3.191815 -0.139506,0 -1.62898,-1.436317 -3.309943,-3.191815 z m -7.978946,-3.293296 c 0,-0.378597 1.049647,-2.334333 1.252841,-2.334333 0.09701,0 -0.086,0.515937 -0.406702,1.146527 -0.654839,1.287604 -0.846139,1.556151 -0.846139,1.187806 z m 21.764767,-1.104041 c -0.322677,-0.676661 -0.513956,-1.230292 -0.425064,-1.230292 0.241393,0 1.312306,2.160027 1.150924,2.321409 -0.07655,0.07655 -0.403183,-0.414456 -0.72586,-1.091117 z M 42.577432,46.592329 c 0.01693,-0.410966 0.100521,-0.494559 0.213136,-0.213137 0.101908,0.254662 0.08937,0.558932 -0.02785,0.676158 -0.117226,0.117225 -0.200604,-0.09113 -0.185286,-0.463021 z m 10.230555,0 c 0.01693,-0.410966 0.100521,-0.494559 0.213137,-0.213137 0.101907,0.254662 0.08937,0.558932 -0.02785,0.676158 -0.117225,0.117225 -0.200604,-0.09113 -0.185286,-0.463021 z M 38.316248,46.09256 c 0.207681,-0.388055 0.456976,-0.705555 0.55399,-0.705555 0.09701,0 0.0065,0.3175 -0.201213,0.705555 -0.207681,0.388056 -0.456976,0.705556 -0.55399,0.705556 -0.09701,0 -0.0065,-0.3175 0.201213,-0.705556 z m 18.697222,0 c -0.207681,-0.388055 -0.298227,-0.705555 -0.201214,-0.705555 0.09701,0 0.34631,0.3175 0.553991,0.705555 0.207681,0.388056 0.298227,0.705556 0.201214,0.705556 -0.09701,0 -0.34631,-0.3175 -0.553991,-0.705556 z M 40.432914,42.564782 c 0.207681,-0.388055 0.456977,-0.705555 0.553991,-0.705555 0.09701,0 0.0065,0.3175 -0.201213,0.705555 -0.207681,0.388056 -0.456977,0.705556 -0.553991,0.705556 -0.09701,0 -0.0065,-0.3175 0.201213,-0.705556 z m 14.463889,0 c -0.207681,-0.388055 -0.298227,-0.705555 -0.201213,-0.705555 0.09701,0 0.34631,0.3175 0.553991,0.705555 0.207681,0.388056 0.298227,0.705556 0.201213,0.705556 -0.09701,0 -0.34631,-0.3175 -0.553991,-0.705556 z M 41.844025,40.095338 c 0.395943,-0.776111 0.799271,-1.411111 0.896285,-1.411111 0.09701,0 -0.147565,0.635 -0.543507,1.411111 -0.395942,0.776111 -0.79927,1.411111 -0.896284,1.411111 -0.09701,0 0.147564,-0.635 0.543506,-1.411111 z m 11.641667,0 c -0.395942,-0.776111 -0.64052,-1.411111 -0.543507,-1.411111 0.09701,0 0.500342,0.635 0.896285,1.411111 0.395942,0.776111 0.64052,1.411111 0.543506,1.411111 -0.09701,0 -0.500342,-0.635 -0.896284,-1.411111 z M 43.255136,37.625893 c 0.207681,-0.388055 0.456977,-0.705555 0.553991,-0.705555 0.09701,0 0.0065,0.3175 -0.201213,0.705555 -0.207681,0.388056 -0.456977,0.705556 -0.553991,0.705556 -0.09701,0 -0.0065,-0.3175 0.201213,-0.705556 z m 8.819445,0 c -0.207681,-0.388055 -0.298227,-0.705555 -0.201213,-0.705555 0.09701,0 0.34631,0.3175 0.553991,0.705555 0.207681,0.388056 0.298227,0.705556 0.201213,0.705556 -0.09701,0 -0.34631,-0.3175 -0.553991,-0.705556 z m -5.252417,-5.909028 c 0.437925,-0.824618 0.896513,-1.499305 1.019084,-1.499305 0.12257,0 0.581158,0.674687 1.019083,1.499305 0.437925,0.824618 0.58622,1.251343 0.329544,0.948277 -0.62238,-0.734865 -1.701405,-1.124151 -1.701405,-0.613825 0,0.220276 -0.103366,0.297136 -0.229702,0.1708 -0.126336,-0.126336 -0.455406,0.04564 -0.731267,0.382176 -0.275861,0.336533 -0.143262,-0.06281 0.294663,-0.887428 z"
       id="path3720"
       inkscape:connector-curvature="0" />
    <path
       style="fill:url(#linearGradient4536);fill-opacity:1;stroke-width:0.35277778"
       d="m 45.537149,53.765477 -2.105624,-2.204861 2.204861,2.105624 2.204862,2.105623 2.204861,-2.105623 2.204861,-2.105624 -2.105624,2.204861 c -1.158093,1.212674 -2.194937,2.204861 -2.304098,2.204861 -0.109162,0 -1.146006,-0.992187 -2.304099,-2.204861 z m -3.197475,-3.527778 -0.672038,-0.79375 0.79375,0.672038 c 0.74593,0.631549 0.954349,0.915462 0.672038,0.915462 -0.06694,0 -0.42413,-0.357187 -0.79375,-0.79375 z m 10.616851,0.08819 c 0.351186,-0.388056 0.717894,-0.705556 0.814908,-0.705556 0.09701,0 -0.110945,0.3175 -0.46213,0.705556 -0.351185,0.388055 -0.717894,0.705555 -0.814908,0.705555 -0.09701,0 0.110945,-0.3175 0.46213,-0.705555 z m -15.698611,-2.46944 c 0.207681,-0.388055 0.456977,-0.705555 0.553991,-0.705555 0.09701,0 0.0065,0.3175 -0.201213,0.705555 -0.207681,0.388056 -0.456977,0.705556 -0.553991,0.705556 -0.09701,0 -0.0065,-0.3175 0.201213,-0.705556 z m 20.813889,0 c -0.207681,-0.388055 -0.298227,-0.705555 -0.201213,-0.705555 0.09701,0 0.34631,0.3175 0.553991,0.705555 0.207681,0.388056 0.298227,0.705556 0.201213,0.705556 -0.09701,0 -0.34631,-0.3175 -0.553991,-0.705556 z M 41.844025,40.095338 c 0.207681,-0.388056 0.456977,-0.705556 0.553991,-0.705556 0.09701,0 0.0065,0.3175 -0.201213,0.705556 -0.207681,0.388055 -0.456977,0.705555 -0.553991,0.705555 -0.09701,0 -0.0065,-0.3175 0.201213,-0.705555 z m 11.641667,0 c -0.207681,-0.388056 -0.298227,-0.705556 -0.201213,-0.705556 0.09701,0 0.34631,0.3175 0.553991,0.705556 0.207681,0.388055 0.298227,0.705555 0.201213,0.705555 -0.09701,0 -0.34631,-0.3175 -0.553991,-0.705555 z M 43.255136,37.625893 c 0.207681,-0.388055 0.456977,-0.705555 0.553991,-0.705555 0.09701,0 0.0065,0.3175 -0.201213,0.705555 -0.207681,0.388056 -0.456977,0.705556 -0.553991,0.705556 -0.09701,0 -0.0065,-0.3175 0.201213,-0.705556 z m 8.819445,0 c -0.207681,-0.388055 -0.298227,-0.705555 -0.201213,-0.705555 0.09701,0 0.34631,0.3175 0.553991,0.705555 0.207681,0.388056 0.298227,0.705556 0.201213,0.705556 -0.09701,0 -0.34631,-0.3175 -0.553991,-0.705556 z m -5.247662,-5.90631 c 0.460867,-0.823124 0.917315,-1.496589 1.014329,-1.496589 0.09701,0 0.553461,0.673465 1.014328,1.496589 0.796463,1.422508 0.800148,1.457298 0.07445,0.702838 -0.952974,-0.990747 -1.224587,-0.990747 -2.177561,0 -0.725696,0.75446 -0.722011,0.71967 0.07445,-0.702838 z"
       id="path3718"
       inkscape:connector-curvature="0" />
    <path
       style="fill:url(#linearGradient4538);fill-opacity:1;stroke-width:0.35277778"
       d="m 46.411145,54.647422 -1.215731,-1.322917 1.322917,1.215731 1.322917,1.215731 1.322916,-1.215731 1.322917,-1.215731 -1.215731,1.322917 c -0.668652,0.727604 -1.312198,1.322916 -1.430102,1.322916 -0.117905,0 -0.761451,-0.595312 -1.430103,-1.322916 z m -4.25934,-4.586112 c -0.43881,-0.559525 -0.426333,-0.572003 0.133193,-0.133193 0.339548,0.266292 0.617361,0.544105 0.617361,0.617361 0,0.290349 -0.289696,0.103471 -0.750554,-0.484168 z m 10.628331,0.484168 c 0,-0.07326 0.277813,-0.351069 0.617361,-0.617361 0.559526,-0.43881 0.572003,-0.426332 0.133193,0.133193 -0.460858,0.587639 -0.750554,0.774517 -0.750554,0.484168 z M 41.844025,40.095338 c 0.207681,-0.388056 0.456977,-0.705556 0.553991,-0.705556 0.09701,0 0.0065,0.3175 -0.201213,0.705556 -0.207681,0.388055 -0.456977,0.705555 -0.553991,0.705555 -0.09701,0 -0.0065,-0.3175 0.201213,-0.705555 z m 11.641667,0 c -0.207681,-0.388056 -0.298227,-0.705556 -0.201213,-0.705556 0.09701,0 0.34631,0.3175 0.553991,0.705556 0.207681,0.388055 0.298227,0.705555 0.201213,0.705555 -0.09701,0 -0.34631,-0.3175 -0.553991,-0.705555 z m -6.259021,-9.05463 c 0.472825,-1.03774 0.756328,-1.03774 1.229153,0 0.344391,0.755855 0.294149,0.823148 -0.614576,0.823148 -0.908726,0 -0.958968,-0.06729 -0.614577,-0.823148 z"
       id="path3716"
       inkscape:connector-curvature="0" />
    <path
       style="fill:url(#linearGradient4540);fill-opacity:1;stroke-width:0.35277778"
       d="m 47.240065,31.01131 c 0.198911,-0.436563 0.469444,-0.79375 0.601183,-0.79375 0.131738,0 0.402271,0.357187 0.601182,0.79375 0.326962,0.717604 0.26929,0.79375 -0.601182,0.79375 -0.870473,0 -0.928145,-0.07615 -0.601183,-0.79375 z"
       id="path3714"
       inkscape:connector-curvature="0" />
    <path
       style="fill:url(#linearGradient4542);fill-opacity:1;stroke-width:0.35277778"
       d="m 47.235025,31.022372 c 0.380438,-0.834971 0.758594,-0.780113 1.275093,0.184974 0.264811,0.494805 0.151883,0.597714 -0.655912,0.597714 -0.879824,0 -0.940723,-0.07698 -0.619181,-0.782688 z"
       id="path3712"
       inkscape:connector-curvature="0" />
    <path
       style="fill:url(#linearGradient4544);fill-opacity:1;stroke-width:0.35277778"
       d="m 47.249085,31.112103 c 0.157914,-0.473741 1.026411,-0.473741 1.184325,0 0.06699,0.200958 -0.199487,0.365377 -0.592162,0.365377 -0.392676,0 -0.659149,-0.164419 -0.592163,-0.365377 z"
       id="path3710"
       inkscape:connector-curvature="0" />
    <path
       style="fill:url(#linearGradient4546);fill-opacity:1;stroke-width:0.35277778"
       d="m 47.249085,31.112103 c 0.157914,-0.473741 1.026411,-0.473741 1.184325,0 0.06699,0.200958 -0.199487,0.365377 -0.592162,0.365377 -0.392676,0 -0.659149,-0.164419 -0.592163,-0.365377 z"
       id="path3708"
       inkscape:connector-curvature="0" />
    <path
       style="fill:url(#linearGradient4548);fill-opacity:1;stroke-width:0.35277778"
       d="m 47.36779,31.081538 c 0.214125,-0.558 0.826235,-0.703328 0.826235,-0.196166 0,0.173269 -0.23004,0.403309 -0.5112,0.511201 -0.341673,0.131112 -0.446147,0.02664 -0.315035,-0.315035 z"
       id="path3706"
       inkscape:connector-curvature="0" />
    <path
       style="fill:url(#linearGradient4550);fill-opacity:1;stroke-width:0.35277778"
       d="m 47.48847,30.923115 c 0,-0.194027 0.15875,-0.352777 0.352778,-0.352777 0.194027,0 0.352777,0.15875 0.352777,0.352777 0,0.194028 -0.15875,0.352778 -0.352777,0.352778 -0.194028,0 -0.352778,-0.15875 -0.352778,-0.352778 z"
       id="path3704"
       inkscape:connector-curvature="0" />
  </g>
  <g
     id="g4571"
     transform="matrix(1.0199534,0,0,1.0276746,54.369564,11.428649)"
     style="fill:url(#linearGradient5293);fill-opacity:1">
    <path
       id="path4556"
       d="M 71.399,22 V 11.727 c 0,-1.737 -0.35,-3.022 -1.048,-3.857 -0.698,-0.834 -1.794,-1.241 -3.288,-1.222 -1.924,0.03 -3.448,0.796 -4.57,2.298 -0.645,0.868 -0.997,1.707 -1.055,2.517 V 22 H 60.647 V 11.361 C 60.637,9.77 60.288,8.588 59.599,7.812 58.911,7.036 57.815,6.648 56.311,6.648 c -1.738,0 -3.159,0.766 -4.263,2.298 -0.654,0.917 -1.089,1.932 -1.304,3.044 V 22 H 49.939 V 6.15 h 0.805 V 9.9 c 0.537,-1.289 1.304,-2.285 2.3,-2.988 0.996,-0.703 2.1,-1.055 3.311,-1.055 1.328,0 2.414,0.293 3.259,0.879 0.845,0.586 1.399,1.543 1.663,2.871 0.468,-1.142 1.23,-2.053 2.285,-2.732 1.055,-0.678 2.236,-1.018 3.545,-1.018 1.709,0 2.981,0.484 3.816,1.451 0.835,0.966 1.257,2.417 1.267,4.35 V 22 Z M 44.211,19.1 c -0.625,1.015 -1.479,1.801 -2.563,2.358 -1.084,0.557 -2.31,0.835 -3.677,0.835 -1.465,0 -2.644,-0.398 -3.538,-1.194 -0.893,-0.796 -1.34,-1.833 -1.34,-3.113 0,-1.455 0.657,-2.619 1.97,-3.493 1.314,-0.874 3.059,-1.321 5.237,-1.341 h 3.911 V 10.838 C 44.211,9.51 43.794,8.479 42.959,7.747 42.124,7.015 40.93,6.648 39.377,6.648 c -1.445,0 -2.651,0.372 -3.618,1.114 -0.967,0.742 -1.45,1.66 -1.45,2.754 l -0.791,-0.03 c 0,-1.289 0.566,-2.382 1.699,-3.281 1.133,-0.898 2.52,-1.348 4.16,-1.348 1.709,0 3.067,0.428 4.073,1.282 1.005,0.855 1.523,2.058 1.552,3.611 v 7.573 c 0,1.739 0.137,2.92 0.41,3.545 V 22 h -0.908 c -0.195,-0.674 -0.293,-1.641 -0.293,-2.9 z m 0,-5.157 h -3.662 c -2.266,0 -3.999,0.45 -5.2,1.348 -0.977,0.732 -1.465,1.646 -1.465,2.739 0,0.967 0.386,1.787 1.157,2.461 0.772,0.674 1.748,1.011 2.93,1.011 1.484,0 2.761,-0.332 3.831,-0.996 1.069,-0.664 1.872,-1.597 2.409,-2.798 z M 28.42,2.005 c -0.225,0 -0.415,-0.078 -0.571,-0.234 -0.156,-0.157 -0.234,-0.347 -0.234,-0.572 0,-0.224 0.078,-0.417 0.234,-0.578 0.156,-0.162 0.346,-0.242 0.571,-0.242 0.225,0 0.418,0.08 0.579,0.242 0.161,0.161 0.242,0.354 0.242,0.578 0,0.225 -0.081,0.415 -0.242,0.572 -0.161,0.156 -0.354,0.234 -0.579,0.234 z M 27.951,6.15 h 0.792 v 17.74 c 0,1.464 -0.367,2.583 -1.099,3.354 -0.733,0.771 -1.758,1.157 -3.076,1.157 -0.479,0 -0.957,-0.097 -1.436,-0.293 l 0.044,-0.761 c 0.469,0.175 0.933,0.263 1.392,0.263 1.093,0 1.931,-0.324 2.512,-0.974 0.581,-0.649 0.871,-1.565 0.871,-2.746 z M 21.858,19.1 c -0.625,1.015 -1.48,1.801 -2.564,2.358 -1.084,0.557 -2.309,0.835 -3.676,0.835 -1.465,0 -2.645,-0.398 -3.538,-1.194 -0.894,-0.796 -1.34,-1.833 -1.34,-3.113 0,-1.455 0.656,-2.619 1.97,-3.493 1.313,-0.874 3.059,-1.321 5.237,-1.341 h 3.911 V 10.838 C 21.858,9.51 21.44,8.479 20.605,7.747 19.77,7.015 18.576,6.648 17.024,6.648 c -1.446,0 -2.652,0.372 -3.618,1.114 -0.967,0.742 -1.451,1.66 -1.451,2.754 l -0.791,-0.03 c 0,-1.289 0.567,-2.382 1.7,-3.281 1.132,-0.898 2.519,-1.348 4.16,-1.348 1.709,0 3.066,0.428 4.072,1.282 1.006,0.855 1.523,2.058 1.553,3.611 v 7.573 c 0,1.739 0.136,2.92 0.41,3.545 V 22 h -0.908 c -0.196,-0.674 -0.293,-1.641 -0.293,-2.9 z m 0,-5.157 h -3.662 c -2.266,0 -3.999,0.45 -5.201,1.348 -0.976,0.732 -1.464,1.646 -1.464,2.739 0,0.967 0.385,1.787 1.157,2.461 0.771,0.674 1.748,1.011 2.93,1.011 1.484,0 2.761,-0.332 3.83,-0.996 1.069,-0.664 1.873,-1.597 2.41,-2.798 z m -17.71,7.39 C 3.65,20.692 3.396,19.683 3.386,18.305 V 6.941 H 0.456 V 6.15 h 2.93 V 1.873 H 4.192 V 6.15 H 7.795 V 6.941 H 4.192 v 11.262 c 0,1.124 0.183,1.955 0.549,2.493 0.366,0.537 0.979,0.806 1.838,0.806 0.43,0 0.953,-0.044 1.568,-0.132 l 0.132,0.747 c -0.323,0.117 -0.874,0.176 -1.656,0.176 -1.152,0 -1.977,-0.32 -2.475,-0.96 z"
       inkscape:connector-curvature="0"
       style="fill:url(#linearGradient4552);fill-opacity:1;fill-rule:evenodd" />
    <path
       id="path4558"
       d="M 71.399,22 V 11.727 c 0,-1.737 -0.35,-3.022 -1.048,-3.857 -0.698,-0.834 -1.794,-1.241 -3.288,-1.222 -1.924,0.03 -3.448,0.796 -4.57,2.298 -0.645,0.868 -0.997,1.707 -1.055,2.517 V 22 H 60.647 V 11.361 C 60.637,9.77 60.288,8.588 59.599,7.812 58.911,7.036 57.815,6.648 56.311,6.648 c -1.738,0 -3.159,0.766 -4.263,2.298 -0.654,0.917 -1.089,1.932 -1.304,3.044 V 22 H 49.939 V 6.15 h 0.805 V 9.9 c 0.537,-1.289 1.304,-2.285 2.3,-2.988 0.996,-0.703 2.1,-1.055 3.311,-1.055 1.328,0 2.414,0.293 3.259,0.879 0.845,0.586 1.399,1.543 1.663,2.871 0.468,-1.142 1.23,-2.053 2.285,-2.732 1.055,-0.678 2.236,-1.018 3.545,-1.018 1.709,0 2.981,0.484 3.816,1.451 0.835,0.966 1.257,2.417 1.267,4.35 V 22 Z M 44.211,19.1 c -0.625,1.015 -1.479,1.801 -2.563,2.358 -1.084,0.557 -2.31,0.835 -3.677,0.835 -1.465,0 -2.644,-0.398 -3.538,-1.194 -0.893,-0.796 -1.34,-1.833 -1.34,-3.113 0,-1.455 0.657,-2.619 1.97,-3.493 1.314,-0.874 3.059,-1.321 5.237,-1.341 h 3.911 V 10.838 C 44.211,9.51 43.794,8.479 42.959,7.747 42.124,7.015 40.93,6.648 39.377,6.648 c -1.445,0 -2.651,0.372 -3.618,1.114 -0.967,0.742 -1.45,1.66 -1.45,2.754 l -0.791,-0.03 c 0,-1.289 0.566,-2.382 1.699,-3.281 1.133,-0.898 2.52,-1.348 4.16,-1.348 1.709,0 3.067,0.428 4.073,1.282 1.005,0.855 1.523,2.058 1.552,3.611 v 7.573 c 0,1.739 0.137,2.92 0.41,3.545 V 22 h -0.908 c -0.195,-0.674 -0.293,-1.641 -0.293,-2.9 z m 0,-5.157 h -3.662 c -2.266,0 -3.999,0.45 -5.2,1.348 -0.977,0.732 -1.465,1.646 -1.465,2.739 0,0.967 0.386,1.787 1.157,2.461 0.772,0.674 1.748,1.011 2.93,1.011 1.484,0 2.761,-0.332 3.831,-0.996 1.069,-0.664 1.872,-1.597 2.409,-2.798 z M 28.42,2.005 c -0.225,0 -0.415,-0.078 -0.571,-0.234 -0.156,-0.157 -0.234,-0.347 -0.234,-0.572 0,-0.224 0.078,-0.417 0.234,-0.578 0.156,-0.162 0.346,-0.242 0.571,-0.242 0.225,0 0.418,0.08 0.579,0.242 0.161,0.161 0.242,0.354 0.242,0.578 0,0.225 -0.081,0.415 -0.242,0.572 -0.161,0.156 -0.354,0.234 -0.579,0.234 z M 27.951,6.15 h 0.792 v 17.74 c 0,1.464 -0.367,2.583 -1.099,3.354 -0.733,0.771 -1.758,1.157 -3.076,1.157 -0.479,0 -0.957,-0.097 -1.436,-0.293 l 0.044,-0.761 c 0.469,0.175 0.933,0.263 1.392,0.263 1.093,0 1.931,-0.324 2.512,-0.974 0.581,-0.649 0.871,-1.565 0.871,-2.746 z M 21.858,19.1 c -0.625,1.015 -1.48,1.801 -2.564,2.358 -1.084,0.557 -2.309,0.835 -3.676,0.835 -1.465,0 -2.645,-0.398 -3.538,-1.194 -0.894,-0.796 -1.34,-1.833 -1.34,-3.113 0,-1.455 0.656,-2.619 1.97,-3.493 1.313,-0.874 3.059,-1.321 5.237,-1.341 h 3.911 V 10.838 C 21.858,9.51 21.44,8.479 20.605,7.747 19.77,7.015 18.576,6.648 17.024,6.648 c -1.446,0 -2.652,0.372 -3.618,1.114 -0.967,0.742 -1.451,1.66 -1.451,2.754 l -0.791,-0.03 c 0,-1.289 0.567,-2.382 1.7,-3.281 1.132,-0.898 2.519,-1.348 4.16,-1.348 1.709,0 3.066,0.428 4.072,1.282 1.006,0.855 1.523,2.058 1.553,3.611 v 7.573 c 0,1.739 0.136,2.92 0.41,3.545 V 22 h -0.908 c -0.196,-0.674 -0.293,-1.641 -0.293,-2.9 z m 0,-5.157 h -3.662 c -2.266,0 -3.999,0.45 -5.201,1.348 -0.976,0.732 -1.464,1.646 -1.464,2.739 0,0.967 0.385,1.787 1.157,2.461 0.771,0.674 1.748,1.011 2.93,1.011 1.484,0 2.761,-0.332 3.83,-0.996 1.069,-0.664 1.873,-1.597 2.41,-2.798 z m -17.71,7.39 C 3.65,20.692 3.396,19.683 3.386,18.305 V 6.941 H 0.456 V 6.15 h 2.93 V 1.873 H 4.192 V 6.15 H 7.795 V 6.941 H 4.192 v 11.262 c 0,1.124 0.183,1.955 0.549,2.493 0.366,0.537 0.979,0.806 1.838,0.806 0.43,0 0.953,-0.044 1.568,-0.132 l 0.132,0.747 c -0.323,0.117 -0.874,0.176 -1.656,0.176 -1.152,0 -1.977,-0.32 -2.475,-0.96 z"
       inkscape:connector-curvature="0"
       style="fill:url(#linearGradient4554);fill-opacity:1" />
  </g>
</svg>
