<?xml version="1.0" encoding="UTF-8" standalone="no"?>
<svg
   xmlns:dc="http://purl.org/dc/elements/1.1/"
   xmlns:cc="http://creativecommons.org/ns#"
   xmlns:rdf="http://www.w3.org/1999/02/22-rdf-syntax-ns#"
   xmlns:svg="http://www.w3.org/2000/svg"
   xmlns="http://www.w3.org/2000/svg"
   xmlns:sodipodi="http://sodipodi.sourceforge.net/DTD/sodipodi-0.dtd"
   xmlns:inkscape="http://www.inkscape.org/namespaces/inkscape"
   width="15"
   height="20"
   viewBox="0 0 15 20"
   version="1.1"
   id="svg4487"
   sodipodi:docname="map-marker.svg"
   inkscape:version="0.92.1 r15371">
  <metadata
     id="metadata4493">
    <rdf:RDF>
      <cc:Work
         rdf:about="">
        <dc:format>image/svg+xml</dc:format>
        <dc:type
           rdf:resource="http://purl.org/dc/dcmitype/StillImage" />
      </cc:Work>
    </rdf:RDF>
  </metadata>
  <defs
     id="defs4491" />
  <sodipodi:namedview
     pagecolor="#ffffff"
     bordercolor="#666666"
     borderopacity="1"
     objecttolerance="10"
     gridtolerance="10"
     guidetolerance="10"
     inkscape:pageopacity="0"
     inkscape:pageshadow="2"
     inkscape:window-width="1920"
     inkscape:window-height="1017"
     id="namedview4489"
     showgrid="false"
     inkscape:zoom="5.278047"
     inkscape:cx="93.833066"
     inkscape:cy="60.954621"
     inkscape:window-x="-8"
     inkscape:window-y="-8"
     inkscape:window-maximized="1"
     inkscape:current-layer="svg4487" />
  <path
     d="M 11.25,6.6666667 Q 11.25,5.2864 10.15137,4.3098667 9.0527325,3.3333333 7.5,3.3333333 q -1.5527325,0 -2.65137,0.9765334 Q 3.75,5.2864 3.75,6.6666667 q 0,1.3802666 1.09863,2.3568 Q 5.9472675,10 7.5,10 9.0527325,10 10.15137,9.0234667 11.25,8.0469333 11.25,6.6666667 Z m 3.75,0 Q 15,8.086 14.516603,8.9973333 L 9.1845675,19.075467 Q 8.9501925,19.5052 8.48877,19.752667 8.02734,20 7.5,20 6.9726525,20 6.51123,19.752667 6.0498075,19.5052 5.83008,19.075467 L 0.4833975,8.9973333 Q 0,8.086 0,6.6666667 0,3.9062667 2.1972675,1.9530667 4.3945275,0 7.5,0 10.605465,0 12.802732,1.9530667 15,3.9062667 15,6.6666667 Z"
     id="path4485"
     inkscape:connector-curvature="0"
     style="stroke-width:0.01381068;fill:#f0f0f0;fill-opacity:1" />
</svg>
