<?xml version="1.0" encoding="UTF-8" standalone="no"?>
<svg
   xmlns:dc="http://purl.org/dc/elements/1.1/"
   xmlns:cc="http://creativecommons.org/ns#"
   xmlns:rdf="http://www.w3.org/1999/02/22-rdf-syntax-ns#"
   xmlns:svg="http://www.w3.org/2000/svg"
   xmlns="http://www.w3.org/2000/svg"
   xmlns:sodipodi="http://sodipodi.sourceforge.net/DTD/sodipodi-0.dtd"
   xmlns:inkscape="http://www.inkscape.org/namespaces/inkscape"
   width="19.999981"
   height="20.000299"
   viewBox="0 0 19.999981 20.000299"
   version="1.1"
   id="svg4505"
   sodipodi:docname="phone.svg"
   inkscape:version="0.92.1 r15371">
  <metadata
     id="metadata4511">
    <rdf:RDF>
      <cc:Work
         rdf:about="">
        <dc:format>image/svg+xml</dc:format>
        <dc:type
           rdf:resource="http://purl.org/dc/dcmitype/StillImage" />
      </cc:Work>
    </rdf:RDF>
  </metadata>
  <defs
     id="defs4509" />
  <sodipodi:namedview
     pagecolor="#ffffff"
     bordercolor="#666666"
     borderopacity="1"
     objecttolerance="10"
     gridtolerance="10"
     guidetolerance="10"
     inkscape:pageopacity="0"
     inkscape:pageshadow="2"
     inkscape:window-width="1920"
     inkscape:window-height="1017"
     id="namedview4507"
     showgrid="false"
     inkscape:zoom="14.928571"
     inkscape:cx="11.289903"
     inkscape:cy="14.50622"
     inkscape:window-x="-8"
     inkscape:window-y="-8"
     inkscape:window-maximized="1"
     inkscape:current-layer="svg4505" />
  <path
     d="m 19.99998,15.7958 q 0,0.3835 -0.14205,1.0014 -0.14204,0.6179 -0.29829,0.973 -0.2983,0.7102 -1.73296,1.5057 -1.33522,0.7244 -2.64204,0.7244 -0.38352,0 -0.74574,-0.05 -0.36222,-0.05 -0.81676,-0.1776 -0.45455,-0.1278 -0.67472,-0.2059 -0.22017,-0.078 -0.78835,-0.2912 Q 11.59089,19.0625 11.46305,19.0199 10.071,18.5227 8.97725,17.8409 7.15907,16.7188 5.22015,14.7798 3.28123,12.8409 2.15907,11.0227 1.47725,9.929 0.98009,8.5369 0.93749,8.4091 0.72441,7.8409 0.51134,7.2727 0.43322,7.0526 0.35512,6.8324 0.22725,6.3778 0.09941,5.9233 0.0497,5.5611 0,5.1989 0,4.8153 0,3.5085 0.72443,2.1733 1.51989,0.7386 2.23011,0.4403 2.58523,0.2841 3.20312,0.142 3.82102,0 4.20455,0 q 0.19886,0 0.29829,0.043 0.25568,0.085 0.75284,1.0796 0.15625,0.2698 0.42614,0.767 0.26988,0.4972 0.49716,0.902 0.22727,0.4048 0.44034,0.7599 0.0426,0.057 0.24858,0.3552 0.20596,0.2982 0.3054,0.5042 0.0994,0.206 0.0994,0.4048 0,0.2841 -0.40483,0.7103 Q 6.46304,5.9521 5.98719,6.3072 5.51133,6.6623 5.1065,7.0601 4.70167,7.4578 4.70167,7.7135 q 0,0.1278 0.071,0.3196 0.071,0.1917 0.12074,0.2912 0.0497,0.099 0.19886,0.3409 0.14915,0.2415 0.16335,0.2699 1.07955,1.946 2.47159,3.338 1.39205,1.3921 3.33807,2.4716 0.0284,0.014 0.26989,0.1634 0.24147,0.1491 0.34091,0.1988 0.0994,0.05 0.29119,0.1208 0.19176,0.071 0.3196,0.071 0.25568,0 0.65341,-0.4048 0.39773,-0.4049 0.75284,-0.8807 0.35512,-0.4759 0.78125,-0.8807 0.42614,-0.4048 0.71023,-0.4048 0.19886,0 0.40483,0.099 0.20596,0.099 0.50426,0.3054 0.2983,0.206 0.35511,0.2486 0.35512,0.2131 0.75995,0.4403 0.40483,0.2273 0.90199,0.4972 0.49715,0.2699 0.76704,0.4261 0.99432,0.4972 1.07955,0.7529 0.0426,0.099 0.0426,0.2983 z"
     id="path4503"
     inkscape:connector-curvature="0"
     style="stroke-width:0.01420455;fill:#f0f0f0;fill-opacity:1" />
</svg>
