<svg version="1" xmlns="http://www.w3.org/2000/svg" width="235" height="229" viewBox="0 0 2350 2290"><path d="M1757 1833c-8-13-587-1812-587-1823 0-6 6-10 13-10 9 0 947 1444 1125 1731 71 117 90 109-252 109-162 0-297-3-299-7z" fill="#52c3c0"/><path d="M0 1820c0-26-2-22 620-988C914 374 1161 0 1168 0c6 0 12 5 12 10 0 11-579 1810-587 1822-2 5-137 8-299 8-286 0-294-1-294-20z" fill="#13102d"/><path d="M1170 1160c0-897 3-1130 13-1130 7 0 123 345 301 901 249 773 288 901 275 913-20 18-482 385-527 418-20 15-43 27-49 28-10 0-13-232-13-1130z" fill="#46a3cc"/><path d="M1120 2263c-80-61-516-407-529-419-13-11 27-142 280-928C1052 350 1170 0 1178 0c9 0 12 236 12 1145 0 1084-1 1145-17 1145-10 0-34-12-53-27z" fill="#30235f"/></svg>