<svg xmlns="http://www.w3.org/2000/svg" width="25" height="25" viewBox="0 0 25 24.999998"><path d="M12.197 24.604l-2.336-4.28-2.098-3.845-3.887-2.328C1.738 12.871-.006 11.807 0 11.786.019 11.722 24.22.034 24.391.006c.344-.056.661.29.602.657-.024.145-12.409 24.221-12.519 24.335-.022.023-.147-.154-.277-.394zm4.94-11.653c2.492-4.797 4.58-8.822 4.64-8.943.11-.218.106-.217-.324.198-.239.23-3.062 2.906-6.274 5.945-3.212 3.04-5.84 5.537-5.84 5.55 0 .08 1.008 2.136 1.973 4.024l1.132 2.217.081-.135c.045-.073 2.12-4.059 4.612-8.856zm-2.345-3.896c3.407-3.193 6.188-5.812 6.181-5.819-.007-.007-3.867 1.831-8.577 4.085C7.685 9.575 3.656 11.5 3.444 11.6l-.387.179L5.77 13.33c1.492.855 2.738 1.549 2.77 1.542.032-.006 2.846-2.624 6.252-5.818z"/></svg>