<svg xmlns="http://www.w3.org/2000/svg" xmlns:xlink="http://www.w3.org/1999/xlink" width="682.348" height="704.667" viewBox="0 0 682.34778 704.66662"><defs><linearGradient id="a"><stop offset="0" stop-color="#00e0d0"/><stop offset="1" stop-color="#4aa3cc"/></linearGradient><linearGradient xlink:href="#a" id="b" y1="352.333" x2="682.348" y2="352.333" gradientUnits="userSpaceOnUse"/></defs><path d="M213.84 703.71c-4.726-1.149-11.56-7.263-13.616-12.181-2.55-6.103-1.641-16.542 1.846-21.213 6.455-8.645 7.6-8.945 35.864-9.395l25.907-.413v-87.711l-95.667-.414-95.667-.415-10.695-3.612c-31.468-10.63-53.522-35.338-59.928-67.141C-.016 491.78-.2 468.482.136 280.667.496 79.99.623 70.34 2.993 63.333 13.29 32.895 34.788 11.64 64.577 2.447 72.159.107 84.307 0 341.174 0 598.04 0 610.189.107 617.77 2.447c29.79 9.193 51.288 30.448 61.584 60.886 2.37 7.008 2.497 16.658 2.857 217.334.336 187.815.152 211.114-1.748 220.548-6.407 31.807-28.48 56.534-59.929 67.133l-10.694 3.604-85 .43-85 .43v87.854h24.457c22.958 0 24.812.188 30.263 3.07 6.584 3.482 11.946 11.979 11.946 18.93 0 6.95-5.362 15.447-11.946 18.93l-5.807 3.07-136.123-.155c-74.868-.085-137.324-.446-138.79-.803zm182-87.043v-44h-88v88h88zm216.198-92.198c9.59-4.496 17.776-12.682 22.272-22.272 3.395-7.242 3.547-8.564 3.962-34.53l.432-27H43.644l.432 27c.415 25.966.566 27.288 3.962 34.53 6.026 12.855 17.905 22.491 30.928 25.091 3.047.609 122.541 1.018 265.541.91l260-.198zm26.157-287.498l-.354-159.695-4.361-8.857c-4.995-10.146-11.026-16.001-21.579-20.95L604.507 44H77.784l-8.857 4.36C58.78 53.357 52.925 59.387 47.975 69.94l-3.468 7.393L44.153 237l-.355 159.667H638.55z" fill="url(#b)"/></svg>