<svg xmlns="http://www.w3.org/2000/svg" xmlns:xlink="http://www.w3.org/1999/xlink" width="682.186" height="641.966" viewBox="0 0 682.18616 641.96582"><defs><linearGradient id="a"><stop offset="0" stop-color="#00e0d0"/><stop offset="1" stop-color="#4aa3cc"/></linearGradient><linearGradient xlink:href="#a" id="b" y1="320.983" x2="682.186" y2="320.983" gradientUnits="userSpaceOnUse"/></defs><path d="M331.975 638.891c-3.162-1.69-9.953-7.24-15.093-12.333-5.139-5.092-68.932-80.716-141.76-168.052C35.871 291.521 32.461 287.143 18.357 257.3c-24.282-51.379-24.48-106.004-.57-157.52 23.97-51.643 67.95-86.796 121.85-97.39 16.005-3.147 48.768-3.116 64.744.06 43.944 8.737 83.046 30.55 121.447 67.752l15.383 14.901 7.609-7.364c23.141-22.397 56.027-46.41 79.61-58.131 12.543-6.235 32.104-13.113 46.666-16.41 17.24-3.903 49.837-4.299 67.459-.82 65.797 12.994 117.053 63.3 133.997 131.514 13.616 54.813 2.28 112.297-31.097 157.694-12.629 17.176-275.04 330.107-282.976 337.455-8.889 8.229-16.768 12.926-21.684 12.926-1.69 0-5.66-1.384-8.821-3.075zM468.43 445.204c69.667-83.219 130.702-156.728 135.634-163.355 23.615-31.729 33.576-58.277 35.258-93.965 3.202-67.98-37.827-128.68-97.726-144.582-42.66-11.325-85.376 2.591-138.499 45.12-16.43 13.155-44.68 40.698-55.333 53.95-3.3 4.106-6.3 7.458-6.667 7.45-.367-.008-4.867-5.133-10-11.39-5.133-6.256-16.117-17.918-24.407-25.915-53.231-51.346-101.046-75.626-143.34-72.787-60.23 4.042-108.36 50.854-118.86 115.606-5.277 32.536.077 65.07 15.662 95.17 12.23 23.619 27.207 42.551 152.945 193.324 70.033 83.978 127.633 152.685 128 152.684.367-.001 57.667-68.09 127.333-151.31z" fill="url(#b)"/></svg>