<svg xmlns="http://www.w3.org/2000/svg" xmlns:xlink="http://www.w3.org/1999/xlink" width="382.667" height="683.062" viewBox="0 0 382.66669 683.06159"><defs><linearGradient id="a"><stop offset="0" stop-color="#00e0d0"/><stop offset="1" stop-color="#4aa3cc"/></linearGradient><linearGradient xlink:href="#a" id="b" y1="341.531" x2="382.667" y2="341.531" gradientUnits="userSpaceOnUse"/></defs><path d="M66.9 680.758c-29.667-6.365-52.357-26.687-63.327-56.717L0 614.26V68.928l3.573-9.78C14.702 28.68 37.369 8.63 67.786 2.348c15.153-3.13 231.942-3.13 247.094 0 30.417 6.282 53.085 26.333 64.214 56.8l3.573 9.78V614.26l-3.573 9.78c-11.13 30.467-33.797 50.517-64.214 56.8-14.576 3.01-233.9 2.937-247.98-.083zM316 636.293c8.5-4.21 16.49-12.199 20.698-20.699l3.302-6.666.379-69.667.378-69.667H42v67.122c0 52.832.387 68.407 1.818 73.161 3.846 12.781 15.386 24.512 28.044 28.508 4.332 1.367 29.63 1.673 121.471 1.468l116-.259zM181.333 596.43c-11.627-3.074-21.615-11.005-27.423-21.776-4.143-7.684-4.524-9.354-4.5-19.727.021-9.26.598-12.432 3.152-17.334 5.53-10.612 10.498-15.698 19.818-20.287 7.673-3.777 10.28-4.38 18.953-4.38s11.28.603 18.953 4.38c9.321 4.59 14.29 9.675 19.819 20.287 2.554 4.902 3.13 8.074 3.152 17.334.024 10.373-.357 12.043-4.5 19.727-7.287 13.513-19.527 21.417-34.542 22.307-4.885.29-10.682.05-12.882-.53zm159.334-308.17V149.594H42v277.334h298.667zm-.262-197.667c-.455-13.892-1.019-17.33-3.772-23-4.106-8.458-12.09-16.468-20.633-20.698l-6.667-3.302h-236l-6.632 3.264c-8.466 4.166-16.616 12.32-20.759 20.771-2.788 5.688-3.32 8.955-3.733 22.965l-.483 16.334H340.94z" fill="url(#b)"/></svg>