<svg xmlns="http://www.w3.org/2000/svg" xmlns:xlink="http://www.w3.org/1999/xlink" width="682.68" height="839.937" viewBox="0 0 682.67987 839.93665"><defs><linearGradient id="a"><stop offset="0" stop-color="#00e0d0"/><stop offset="1" stop-color="#4aa3cc"/></linearGradient><linearGradient xlink:href="#a" id="b" y1="419.968" x2="682.68" y2="419.968" gradientUnits="userSpaceOnUse"/></defs><path d="M84.838 837.82c-42.957-9.213-73.865-40.385-82.718-83.427C.225 745.177.007 710.645.007 420.003c0-356.105-.53-332.381 7.914-354.188 9.918-25.61 33.229-48.669 59.01-58.373C87.705-.378 73.672.003 341.34.003s253.635-.38 274.41 7.44c25.78 9.703 49.091 32.763 59.009 58.372 8.444 21.807 7.914-1.917 7.914 354.188 0 356.105.53 332.381-7.914 354.188-9.918 25.61-33.229 48.669-59.01 58.373-20.796 7.828-6.57 7.449-275.353 7.33-211.8-.093-247.676-.384-255.558-2.074zm500.502-51.21c22.785-3.61 40.33-21.155 43.94-43.94 1.903-12.012 1.903-633.322 0-645.334-3.61-22.785-21.155-40.33-43.94-43.94-11.967-1.896-476.034-1.896-488 0-22.785 3.61-40.33 21.155-43.94 43.94-1.903 12.012-1.903 633.322 0 645.334 3.51 22.155 21.155 40.302 42.607 43.819 10.637 1.744 478.36 1.86 489.333.12zm-412.822-54.417c-6.47-3.026-11.678-9.43-13.706-16.857-.802-2.933-1.46-11.483-1.465-19l-.007-13.666h-14.467c-7.958 0-16.508-.683-19-1.518-21.198-7.097-25.1-34.016-6.757-46.603 4.266-2.926 6.255-3.251 22.323-3.647l17.639-.434.474-16.9c.422-15.052.835-17.532 3.783-22.696 8.035-14.074 27.247-17.307 39.407-6.63 7.277 6.389 7.874 8.319 8.596 27.761l.67 18 18.213.667c17.87.654 18.311.743 23.334 4.744 6.178 4.92 11.119 14.079 11.119 20.61 0 7.96-5.978 18.128-13.13 22.332-5.723 3.364-7.521 3.683-23.204 4.114l-17 .467v16.112c0 13.48-.443 17.028-2.713 21.718-5.766 11.91-21.675 17.24-34.108 11.426zm210.822.384c-13.55-7.032-19.2-22.472-12.796-34.96 10.24-19.967 37.653-19.742 46.943.386 6.156 13.34-.025 28.852-13.79 34.603-6.316 2.64-15.24 2.627-20.357-.029zm130.512-.384c-6.783-3.172-11.829-9.602-13.852-17.652-3.89-15.475 8.777-31.871 24.621-31.871 7.48 0 17.912 5.429 21.976 11.435 4.686 6.926 5.349 18.427 1.518 26.342-5.926 12.24-21.667 17.636-34.263 11.746zM408.673 627.116c-11.524-6.09-16.632-17.523-13.398-29.991 4.832-18.629 27.067-25.526 41.484-12.868 14.524 12.752 11.688 34.164-5.686 42.927-5.415 2.731-17.17 2.696-22.4-.068zm131.915.41c-5.389-2.443-13.395-11.922-14.427-17.082-2.145-10.729 1.347-21.224 9.006-27.066 18.304-13.961 43.782-.132 41.886 22.735-.673 8.113-4.472 14.531-11.418 19.29-5.64 3.866-18.749 4.976-25.047 2.122zm-391.54-103.563c-14.156-2.385-29.234-12.563-36.186-24.426-7.934-13.537-7.596-4.743-7.21-187.612l.355-167.255 4.109-8.67c5.264-11.108 14.78-20.624 25.887-25.888l8.67-4.109h393.334l8.67 4.11c11.107 5.263 20.623 14.78 25.887 25.886l4.11 8.67.353 167.256c.318 150.57.14 167.993-1.796 174.65-5.84 20.092-21.757 34.03-42.797 37.475-9.431 1.545-374.193 1.461-383.387-.087zm361.51-54.568c6.447-3.29 11.614-9.373 13.39-15.767.905-3.26 1.38-51.16 1.385-139.806l.007-134.848-3.713-7.106c-3.005-5.753-5.066-7.814-10.819-10.82l-7.106-3.712H178.978l-7.107 3.713c-5.753 3.005-7.813 5.066-10.819 10.819l-3.712 7.106.008 134.848c.005 88.645.48 136.547 1.385 139.806 1.738 6.26 6.867 12.405 13.102 15.7 4.692 2.48 9.826 2.559 169.225 2.616 160.588.058 164.505 0 169.5-2.55z" fill="url(#b)"/></svg>