<svg xmlns="http://www.w3.org/2000/svg" xmlns:xlink="http://www.w3.org/1999/xlink" width="682.043" height="682.871" viewBox="0 0 682.04309 682.87085"><defs><linearGradient id="a"><stop offset="0" stop-color="#00e0d0"/><stop offset="1" stop-color="#4aa3cc"/></linearGradient><linearGradient xlink:href="#a" id="b" y1="341.435" x2="682.043" y2="341.435" gradientUnits="userSpaceOnUse"/></defs><path d="M284.968 682.09c-73.491-5.548-144.46-38.9-196.926-92.546-16.286-16.652-25.39-27.948-38.044-47.202-68.587-104.36-66.439-241.771 5.397-345.261 19.645-28.301 50.426-59.142 78.24-78.39C165.088 96.922 201.36 80.38 236.3 71.867c11.904-2.9 17.984-4.07 35.667-6.858l5-.789V0l37.667.713c40.2.762 59.213 2.84 86.836 9.498 103.432 24.925 192.029 93.3 241.182 186.131 50.13 94.675 52.558 207.044 6.446 298.318-9.991 19.778-6.302 18.561-33.797 11.143l-23.666-6.385-8.713 16.694c-15.856 30.377-31.35 51.236-57.165 76.957-31.001 30.89-65.214 53.243-105.794 69.122-40.317 15.777-90.877 23.23-134.996 19.9zm54.878-43.873c76.697-9.904 147.43-52.065 187.855-111.973 6.403-9.49 19.94-34.913 19.93-37.431-.004-.626-55.053-20.289-122.334-43.696-67.28-23.407-128.179-44.64-135.329-47.187l-13-4.629V250.155c0-78.73-.234-143.146-.52-143.146-.286 0-6.414 1.213-13.618 2.695-23.617 4.86-35.885 8.93-60.785 20.167-81.983 37.001-142.934 116.613-156.54 204.471-9.466 61.118 3.954 126.51 36.847 179.544 54.383 87.683 157.125 137.292 257.494 124.331zM615.609 448.01c14.348-30.277 19.874-52.861 20.992-85.803 2.84-83.662-30.95-163.567-95.803-226.551-52.507-50.994-117.554-82.478-187.242-90.63-9.481-1.109-20.994-2.016-25.585-2.016h-8.347l.339 160.146.338 160.147 144 49.106c79.2 27.008 144.187 49.142 144.416 49.187.228.044 3.33-6.07 6.892-13.586z" fill="url(#b)"/></svg>