<svg xmlns="http://www.w3.org/2000/svg" xmlns:xlink="http://www.w3.org/1999/xlink" width="681.111" height="596.211" viewBox="0 0 681.11078 596.21136"><defs><linearGradient id="a"><stop offset="0" stop-color="#00e0d0"/><stop offset="1" stop-color="#4aa3cc"/></linearGradient><linearGradient xlink:href="#a" id="b" y1="298.106" x2="681.111" y2="298.106" gradientUnits="userSpaceOnUse"/></defs><path d="M124.43 595.411c-41.342-5.122-80.599-25.164-113.92-58.162L0 526.84l10.644-1.622c33.712-5.136 56.346-22.391 65.317-49.792 7.306-22.315 21.987-46.77 36.916-61.494 21.26-20.965 47.632-31.823 83.23-34.264l12.138-.832 142.53-140.609c78.39-77.335 162.029-159.882 185.862-183.44C575.427 16.45 580.974 11.46 589.544 7.2c18.874-9.381 38.103-9.596 56.966-.638 10.705 5.084 20.886 14.314 26.665 24.175 5.81 9.912 8.004 18.793 7.934 32.099-.07 13.4-2.736 22.242-10.018 33.236-2.292 3.46-86.43 87.47-186.977 186.691l-182.81 180.402-.08 15.169c-.089 17.145-1.568 25.182-7.248 39.366-9.65 24.1-27.5 41.487-58.645 57.124-15.36 7.712-39.443 15.785-55.485 18.599-15.11 2.65-42.22 3.623-55.415 1.988zm33.032-39.275c22.752-3.907 52.156-14.576 70.953-25.743 17.031-10.117 27.83-22.165 33.689-37.586 3.413-8.984 3.68-26.005.574-36.707-2.09-7.207-3.712-9.36-17.767-23.597l-15.466-15.667-14.07.009c-32.056.021-58.75 11.542-80.628 34.798-11.077 11.775-16.168 19.709-25.939 40.423-7.894 16.736-15.062 27.464-26.333 39.412l-8.596 9.111 3.713 2.616c8.512 5.998 22.756 11.57 34.73 13.587 10.69 1.8 32.699 1.48 45.14-.657zm153.845-161.304l21.974-22.004-14.88-14.88-14.88-14.88-22.442 22.158-22.442 22.158 14.644 14.726c8.054 8.1 14.96 14.726 15.348 14.726.388 0 10.593-9.902 22.678-22.004zm200.205-197.705c68.707-67.788 125.644-124.991 126.525-127.12 2.137-5.159.978-15.918-2.185-20.282-3.058-4.22-11.994-8.89-17.012-8.89-1.992 0-5.583.82-7.98 1.822-3.662 1.53-135.95 130.729-252.21 246.32l-25.32 25.174 14.557 14.602 14.557 14.602 12.072-11.489c6.64-6.318 68.288-66.95 136.996-134.739z" fill="url(#b)"/></svg>