<svg xmlns="http://www.w3.org/2000/svg" xmlns:xlink="http://www.w3.org/1999/xlink" width="128" height="50" viewBox="0 0 128 50"><defs><linearGradient id="a"><stop offset="0" stop-color="#00e0d0"/><stop offset="1" stop-color="#4aa3cc"/></linearGradient><linearGradient xlink:href="#a" id="u" x1=".456" y1="14.39" x2="72.19" y2="14.39" gradientUnits="userSpaceOnUse"/><linearGradient xlink:href="#a" id="b" x1="36.2" y1="43.074" x2="59.483" y2="43.074" gradientUnits="userSpaceOnUse"/><linearGradient xlink:href="#a" id="c" gradientUnits="userSpaceOnUse" x1="36.2" y1="43.074" x2="59.483" y2="43.074"/><linearGradient xlink:href="#a" id="d" gradientUnits="userSpaceOnUse" x1="36.2" y1="43.074" x2="59.483" y2="43.074"/><linearGradient xlink:href="#a" id="e" gradientUnits="userSpaceOnUse" x1="36.2" y1="43.074" x2="59.483" y2="43.074"/><linearGradient xlink:href="#a" id="f" gradientUnits="userSpaceOnUse" x1="36.2" y1="43.074" x2="59.483" y2="43.074"/><linearGradient xlink:href="#a" id="g" gradientUnits="userSpaceOnUse" x1="36.2" y1="43.074" x2="59.483" y2="43.074"/><linearGradient xlink:href="#a" id="h" gradientUnits="userSpaceOnUse" x1="36.2" y1="43.074" x2="59.483" y2="43.074"/><linearGradient xlink:href="#a" id="i" gradientUnits="userSpaceOnUse" x1="36.2" y1="43.074" x2="59.483" y2="43.074"/><linearGradient xlink:href="#a" id="j" gradientUnits="userSpaceOnUse" x1="36.2" y1="43.074" x2="59.483" y2="43.074"/><linearGradient xlink:href="#a" id="k" gradientUnits="userSpaceOnUse" x1="36.2" y1="43.074" x2="59.483" y2="43.074"/><linearGradient xlink:href="#a" id="l" gradientUnits="userSpaceOnUse" x1="36.2" y1="43.074" x2="59.483" y2="43.074"/><linearGradient xlink:href="#a" id="m" gradientUnits="userSpaceOnUse" x1="36.2" y1="43.074" x2="59.483" y2="43.074"/><linearGradient xlink:href="#a" id="n" gradientUnits="userSpaceOnUse" x1="36.2" y1="43.074" x2="59.483" y2="43.074"/><linearGradient xlink:href="#a" id="o" gradientUnits="userSpaceOnUse" x1="36.2" y1="43.074" x2="59.483" y2="43.074"/><linearGradient xlink:href="#a" id="p" gradientUnits="userSpaceOnUse" x1="36.2" y1="43.074" x2="59.483" y2="43.074"/><linearGradient xlink:href="#a" id="q" gradientUnits="userSpaceOnUse" x1="36.2" y1="43.074" x2="59.483" y2="43.074"/><linearGradient xlink:href="#a" id="r" gradientUnits="userSpaceOnUse" x1="36.2" y1="43.074" x2="59.483" y2="43.074"/><linearGradient xlink:href="#a" id="s" gradientUnits="userSpaceOnUse" x1="36.2" y1="43.074" x2="59.483" y2="43.074"/><linearGradient xlink:href="#a" id="t" gradientUnits="userSpaceOnUse" x1="36.2" y1="43.074" x2="59.483" y2="43.074"/><linearGradient xlink:href="#a" id="v" gradientUnits="userSpaceOnUse" x1=".456" y1="14.39" x2="72.19" y2="14.39"/><linearGradient xlink:href="#a" id="w" gradientUnits="userSpaceOnUse" x1=".456" y1="14.39" x2="72.19" y2="14.39"/></defs><g transform="matrix(1.87269 0 0 1.88687 -67.79 -56.274)" fill="url(#b)"><path d="M44.647 53.148l-2.902-3.175h-2.773c-1.525 0-2.772-.128-2.772-.285 0-.156 1.202-2.34 2.671-4.85 1.47-2.512 4.037-6.904 5.705-9.762 2.394-4.1 3.133-5.115 3.5-4.81.256.212 1.724 2.55 3.262 5.196 1.539 2.645 4 6.864 5.471 9.376 1.47 2.51 2.674 4.694 2.674 4.85 0 .157-1.248.285-2.773.285h-2.773l-2.901 3.175c-1.596 1.746-3.034 3.175-3.195 3.175-.16 0-1.598-1.429-3.194-3.175zm2.815-9.26l-.026-11.025-1.05 3.352c-.577 1.843-1.657 5.256-2.398 7.585a1348.8 1348.8 0 0 0-1.596 5.036c-.208.671.174 1.24 2.307 3.44 1.406 1.45 2.608 2.636 2.673 2.636.064 0 .105-4.96.09-11.024zm5.688 6.035c.222-.401-.16-2.078-1.24-5.468a2170.92 2170.92 0 0 1-2.613-8.24l-1.051-3.352-.026 11.103-.026 11.102 2.318-2.283c1.275-1.255 2.462-2.543 2.638-2.862zm-9.184-8.417c1.27-4.171 2.433-7.783 2.584-8.025.15-.243.207-.441.125-.441-.082 0-.916 1.31-1.852 2.91-3.458 5.912-7.565 13.087-7.565 13.217 0 .074.99.087 2.2.03l2.198-.106zm14.459 7.644c0-.116-4.284-7.59-7.565-13.2-.937-1.6-1.766-2.91-1.844-2.91-.078 0 .008.278.19.618.182.34 1.314 3.872 2.516 7.85 1.202 3.976 2.258 7.35 2.348 7.495.155.251 4.355.393 4.355.147z" fill="url(#c)"/><path d="M44.666 53.148l-2.898-3.175h-2.822c-3.295 0-3.259.39-.413-4.496 1.102-1.893 3.176-5.467 4.607-7.942 1.432-2.476 3.062-5.223 3.622-6.106l1.017-1.605 1.038 1.52c.57.836 2.228 3.583 3.683 6.106 1.455 2.522 3.547 6.134 4.65 8.027 2.845 4.887 2.881 4.496-.413 4.496h-2.822l-2.899 3.175c-1.594 1.746-3.023 3.175-3.175 3.175-.152 0-1.58-1.429-3.175-3.175zm2.795-9.084c-.025-9.853-.085-11.03-.501-9.79-.26.777-1.461 4.553-2.669 8.392l-2.196 6.98 2.609 2.765c1.434 1.52 2.648 2.785 2.696 2.81.049.024.076-4.997.06-11.157zm3.93-1.4a952.382 952.382 0 0 0-2.669-8.39c-.415-1.241-.476-.07-.5 9.75l-.028 11.16 2.696-2.77 2.696-2.771zm-8.514 2.457a322.872 322.872 0 0 1 2.51-8.124c.716-2.19 1.228-3.907 1.139-3.818-.36.36-9.268 15.657-9.268 15.914 0 .096.992.174 2.205.173l2.205-.002 1.209-4.143zm15.548 3.972c0-.257-8.91-15.555-9.268-15.914-.09-.09.423 1.629 1.138 3.818.716 2.19 1.845 5.845 2.51 8.124l1.21 4.143 2.205.002c1.212 0 2.205-.077 2.205-.172z" fill="url(#d)"/><path d="M44.686 53.148l-2.902-3.175h-2.83c-2.49 0-2.803-.07-2.606-.584.206-.536 5.239-9.194 9.452-16.261.955-1.6 1.873-2.91 2.041-2.91.168 0 1.087 1.31 2.041 2.91 4.214 7.067 9.247 15.725 9.452 16.26.197.515-.116.585-2.605.585h-2.83l-2.902 3.175c-1.596 1.746-3.016 3.175-3.156 3.175-.14 0-1.56-1.429-3.155-3.175zm2.787-9.26l-.015-11.377-1.686 5.468a603.136 603.136 0 0 1-2.697 8.535l-1.01 3.066 2.623 2.811c1.443 1.546 2.664 2.825 2.712 2.843.049.017.082-5.089.073-11.346zm5.944 5.724c.06-.157-.845-3.276-2.01-6.93-1.165-3.654-2.353-7.437-2.64-8.407-.49-1.649-.525-1.02-.548 9.614l-.025 11.378 2.558-2.685c1.406-1.476 2.606-2.813 2.665-2.97zm-10.874-3.255c.457-1.6 1.579-5.252 2.492-8.114.913-2.862 1.623-5.203 1.577-5.203-.045 0-1.32 2.103-2.833 4.674-1.512 2.571-3.662 6.222-4.776 8.114l-2.026 3.44h4.735zm14.136-.529l-4.776-8.114c-1.512-2.57-2.787-4.674-2.833-4.674-.046 0 .664 2.341 1.578 5.203.913 2.862 2.034 6.513 2.491 8.114l.831 2.91h4.735z" fill="url(#e)"/><path d="M44.705 53.148l-2.912-3.175H38.96c-2.545 0-2.81-.062-2.6-.611.129-.337 1.596-2.916 3.261-5.733l5.478-9.266c1.349-2.28 2.583-4.145 2.743-4.145.16 0 1.395 1.865 2.743 4.145l5.478 9.266c1.665 2.817 3.133 5.396 3.262 5.733.21.549-.056.611-2.6.611H53.89l-2.911 3.175c-1.602 1.746-3.013 3.175-3.137 3.175-.123 0-1.535-1.429-3.136-3.175zm2.77-9.26L47.46 32.51l-1.57 4.939a1630.79 1630.79 0 0 0-2.685 8.534L42.09 49.58l2.612 2.823c1.436 1.553 2.65 2.832 2.7 2.842.048.011.081-5.1.073-11.357zm5.95 5.689c.086-.221-3.757-12.926-5.054-16.714-.067-.194-.134 4.783-.15 11.06l-.027 11.413 2.558-2.728c1.406-1.501 2.61-2.865 2.674-3.031zm-11.404-1.368c.127-.583 1.227-4.234 2.443-8.114 1.216-3.88 2.173-7.055 2.125-7.055-.047 0-1.555 2.5-3.35 5.556a1774.895 1774.895 0 0 1-4.791 8.114l-1.528 2.558h2.434c2.418 0 2.436-.007 2.667-1.06zm15.214-1.5c-.84-1.406-2.997-5.057-4.792-8.113-1.795-3.056-3.302-5.556-3.35-5.556-.047 0 .909 3.174 2.125 7.055 1.216 3.88 2.316 7.531 2.444 8.114.231 1.052.249 1.059 2.666 1.059h2.434z" fill="url(#f)"/><path d="M44.729 53.143l-2.936-3.17h-2.797c-1.538 0-2.796-.1-2.796-.224s1.366-2.545 3.036-5.38l5.685-9.654c1.457-2.473 2.77-4.497 2.92-4.497.15 0 1.464 2.024 2.92 4.497l5.686 9.654c1.67 2.835 3.036 5.256 3.036 5.38 0 .123-1.257.224-2.793.224h-2.793l-2.962 3.175c-1.63 1.746-3.032 3.173-3.117 3.17-.084-.003-1.474-1.432-3.09-3.175zm2.68-14.827l-.097-5.66-1.496 4.866c-.822 2.677-2.001 6.48-2.62 8.453l-1.123 3.587 2.62 2.792 2.62 2.79.096-5.584c.053-3.071.053-8.131 0-11.244zm6.021 11.248c.094-.246-3.259-11.35-4.883-16.171-.174-.517-.309 3.843-.325 10.53l-.028 11.413 2.558-2.728c1.406-1.501 2.612-2.87 2.678-3.044zM42.365 47.08c.329-1.173 1.396-4.613 2.371-7.645.975-3.032 1.85-5.83 1.944-6.219.094-.388-1.055 1.358-2.554 3.88a7140.919 7140.919 0 0 1-4.931 8.291c-1.213 2.037-2.161 3.784-2.106 3.88.055.098 1.13.124 2.389.06l2.289-.116zm15.828 1.185c-.343-.516-1.916-3.16-3.497-5.877-4.46-7.665-5.869-9.937-5.689-9.172.092.388.964 3.187 1.94 6.22.975 3.031 2.043 6.477 2.374 7.656l.602 2.144 2.162.104c1.19.057 2.29.05 2.447-.017.156-.066.003-.543-.34-1.058z" fill="url(#g)"/><path d="M44.646 52.972l-2.934-2.999h-2.756c-1.516 0-2.756-.096-2.756-.214s1.69-3.095 3.755-6.615c5.805-9.892 6.187-10.51 6.373-10.324.096.096-.85 1.891-2.1 3.99-4.325 7.251-7.323 12.422-7.323 12.632 0 .116 1.059.164 2.353.106l2.353-.104.441-1.411c.242-.776 1.412-4.472 2.6-8.214 1.187-3.74 2.066-6.95 1.954-7.133-.24-.389.765-2.468 1.193-2.468.161 0 1.533 2.103 3.049 4.674l5.695 9.653c1.617 2.739 2.94 5.08 2.94 5.204 0 .123-1.24.224-2.756.224H53.97l-2.934 2.999c-1.614 1.649-3.052 2.998-3.196 2.998-.144 0-1.582-1.349-3.195-2.998zm3.024-9.16c.003-6.3-.09-11.34-.208-11.2-.195.23-3.574 10.84-4.82 15.138l-.533 1.834 2.601 2.831c1.431 1.558 2.681 2.835 2.778 2.84.097.004.18-5.145.182-11.444zm5.8 5.602c.008-.21-1.011-3.62-2.267-7.575-1.255-3.956-2.364-7.673-2.465-8.26-.282-1.649.724 1.203 3.172 8.986l2.163 6.879 2.352.104c1.294.058 2.352.014 2.352-.096 0-.161-4.726-8.307-9.163-15.794-.43-.728-.927-1.234-1.102-1.126-.178.11-.318 5.171-.318 11.521v11.325l2.63-2.79c1.445-1.536 2.636-2.964 2.645-3.174z" fill="url(#h)"/><path d="M44.687 52.972l-2.927-2.999h-2.545c-1.4 0-2.637-.091-2.749-.203-.111-.112.6-1.58 1.581-3.264a5770.879 5770.879 0 0 1 8.03-13.73c.826-1.408 1.62-2.558 1.764-2.558.144 0 .938 1.15 1.765 2.557 1.544 2.626 4.873 8.32 8.03 13.731.98 1.683 1.692 3.152 1.58 3.264-.112.112-1.349.203-2.748.203h-2.545l-2.927 2.999c-1.61 1.649-3.03 2.998-3.155 2.998s-1.544-1.349-3.154-2.998zm3.235-9.084l.08-11.377.185 11.377.183 11.376 2.585-2.826c3.04-3.324 3.057-2.017-.154-12.086-1.246-3.906-2.217-7.247-2.158-7.424.06-.178 1.026 2.593 2.148 6.156 1.122 3.564 2.32 7.353 2.66 8.42l.62 1.94 2.353.104c1.294.058 2.353.01 2.353-.106 0-.196-1.304-2.456-7.498-12.986-1.348-2.292-2.54-4.08-2.647-3.971-.108.108-.392.034-.631-.165-.332-.275-.897 1.08-2.39 5.736-1.077 3.353-2.311 7.309-2.745 8.791l-.788 2.695 2.617 2.861c1.44 1.574 2.736 2.861 2.882 2.862.145 0 .3-5.12.345-11.377zm-5.694 3.616c3.916-12.321 4.8-15.17 4.708-15.17-.178 0-10.03 16.804-10.03 17.108 0 .116 1.058.164 2.352.106l2.353-.104z" fill="url(#i)"/><path d="M44.707 52.972l-2.879-2.999-2.373-.005c-1.305-.003-2.548-.122-2.761-.265-.254-.17.665-2.043 2.645-5.397a6030.42 6030.42 0 0 0 5.663-9.613c1.446-2.462 2.724-4.475 2.84-4.475.115 0 1.393 2.013 2.838 4.475 1.446 2.46 3.994 6.787 5.663 9.613 1.98 3.354 2.9 5.228 2.646 5.397-.213.143-1.456.262-2.761.265l-2.374.005-2.878 2.999c-1.584 1.649-2.994 2.998-3.135 2.998-.14 0-1.55-1.349-3.134-2.998zm6.259-.498c1.386-1.535 2.52-3.01 2.52-3.28s-1.115-3.966-2.477-8.213c-1.362-4.248-2.433-7.851-2.38-8.008.051-.157 1.295 3.485 2.763 8.093l2.668 8.378 2.359.104c1.297.058 2.358-.013 2.358-.156 0-.245-2.431-4.451-7.644-13.224-1.225-2.062-2.507-3.822-2.848-3.91-1.319-.343-.964-.844-8.672 12.267-1.49 2.533-2.708 4.723-2.708 4.867 0 .143 1.061.214 2.359.156l2.358-.104 2.669-8.378c1.467-4.608 2.711-8.25 2.763-8.093.053.157-1.019 3.76-2.38 8.008-1.363 4.247-2.477 7.943-2.477 8.213 0 .743 4.953 6.07 5.644 6.07.333 0 1.74-1.255 3.125-2.79zm-2.968-8.498c0-6.112.048-8.612.107-5.556s.059 8.056 0 11.112c-.059 3.056-.107.556-.107-5.556z" fill="url(#j)"/><path d="M44.707 52.972l-2.879-2.999h-2.44c-1.343 0-2.536-.154-2.653-.342-.206-.334.72-2.48 1.07-2.48.097 0-.066.468-.362 1.04-.296.573-.538 1.129-.538 1.235 0 .107 1.037.194 2.304.194 1.87 0 2.35-.116 2.542-.617.209-.543.26-.525.43.15.285 1.136 4.893 6.112 5.66 6.112.767 0 5.376-4.976 5.66-6.112.17-.675.222-.693.43-.15.193.5.673.617 2.542.617 1.268 0 2.304-.087 2.304-.194 0-.106-.242-.662-.538-1.234-.296-.573-.459-1.041-.362-1.041.35 0 1.277 2.146 1.07 2.48-.116.188-1.31.342-2.652.342h-2.44l-2.88 2.999c-1.583 1.649-2.993 2.998-3.134 2.998-.14 0-1.55-1.349-3.134-2.998zm-2.46-5.116c0-.29.136-.846.303-1.234.19-.445.303-.51.303-.177 0 .291-.137.847-.303 1.235-.192.445-.304.51-.304.176zm10.735-.554c-.13-.517-.168-1.008-.085-1.091.083-.083.257.272.387.789s.168 1.008.085 1.09c-.083.084-.258-.27-.387-.788zm-14.613-1.21c.295-.485 1.218-2.072 2.053-3.527 3.116-5.435 5.377-9.172 5.548-9.172.097 0-.18.595-.616 1.322-.436.728-2.127 3.625-3.758 6.439-1.63 2.813-3.144 5.274-3.363 5.468-.22.194-.158-.044.136-.53zm17.02-2.733c-1.099-1.892-2.793-4.79-3.764-6.439a711.803 711.803 0 0 1-1.913-3.263c-.082-.145-.075-.264.014-.264.16 0 2.495 3.87 5.535 9.172.834 1.455 1.747 3.003 2.028 3.44.281.436.419.793.306.793-.113 0-1.105-1.548-2.205-3.44zm-12.084.97c0-.291.136-.847.303-1.235.191-.445.303-.51.303-.176 0 .29-.136.846-.303 1.234-.191.445-.303.51-.303.177zm8.618-.555c-.13-.517-.167-1.008-.084-1.09.083-.084.257.27.387.788.13.517.168 1.008.085 1.091-.084.083-.258-.272-.388-.789zm-5.463-9.323c-.01-.291.135-.767.323-1.058.417-.645.417-.088 0 .882-.2.465-.31.525-.323.176zm2.467.117c-.015-.227-.119-.703-.23-1.058-.193-.615-.183-.615.2-.016.223.347.327.823.232 1.058-.125.31-.181.313-.202.016zm-2.122-2.903c.447-.796.914-1.447 1.036-1.447.123 0 .59.65 1.037 1.447l.813 1.447-.925-.606c-.874-.573-.975-.573-1.85 0l-.925.606z" fill="url(#k)"/><path d="M44.531 52.779c-2.493-2.604-2.991-3.303-2.706-3.793.311-.534.352-.518.361.144.006.436 1.169 1.967 2.813 3.704l2.803 2.96 2.842-2.942c1.737-1.798 2.846-3.238 2.852-3.704.01-.674.052-.692.361-.162.286.49-.212 1.189-2.706 3.793-1.68 1.755-3.17 3.191-3.31 3.191-.14 0-1.629-1.436-3.31-3.191zm-7.979-3.294c0-.378 1.05-2.334 1.253-2.334.097 0-.086.516-.407 1.146-.654 1.288-.846 1.557-.846 1.188zm21.765-1.104c-.323-.676-.514-1.23-.425-1.23.241 0 1.312 2.16 1.151 2.321-.077.077-.403-.414-.726-1.09zm-15.74-1.789c.017-.41.101-.494.214-.213.101.255.089.56-.028.676-.118.118-.2-.09-.186-.463zm10.231 0c.017-.41.1-.494.213-.213.102.255.09.56-.028.676-.117.118-.2-.09-.185-.463zm-14.492-.5c.208-.387.457-.705.554-.705.097 0 .007.318-.201.706-.208.388-.457.705-.554.705-.097 0-.006-.317.201-.705zm18.697 0c-.207-.387-.298-.705-.2-.705.096 0 .346.318.553.706.208.388.298.705.201.705-.097 0-.346-.317-.554-.705zm-16.58-3.527c.208-.388.457-.706.554-.706.097 0 .006.318-.201.706-.208.388-.457.705-.554.705-.097 0-.007-.317.2-.705zm14.464 0c-.208-.388-.298-.706-.201-.706.097 0 .346.318.554.706.207.388.298.705.2.705-.096 0-.346-.317-.553-.705zm-13.053-2.47c.396-.776.8-1.41.896-1.41.097 0-.147.634-.543 1.41-.396.776-.8 1.411-.896 1.411-.097 0 .147-.635.543-1.41zm11.642 0c-.396-.776-.64-1.41-.544-1.41.097 0 .5.634.896 1.41.396.776.641 1.411.544 1.411-.097 0-.5-.635-.896-1.41zm-10.23-2.47c.207-.387.456-.705.553-.705.097 0 .007.318-.201.706-.208.388-.457.705-.554.705-.097 0-.007-.317.201-.705zm8.819 0c-.208-.387-.299-.705-.202-.705.097 0 .347.318.554.706.208.388.299.705.202.705-.097 0-.347-.317-.554-.705zm-5.253-5.908c.438-.825.897-1.5 1.02-1.5.122 0 .58.675 1.018 1.5.438.824.587 1.251.33.948-.623-.735-1.702-1.124-1.702-.614 0 .22-.103.297-.23.171-.126-.126-.455.046-.73.382-.276.337-.144-.063.294-.887z" fill="url(#l)"/><path d="M45.537 53.765l-2.105-2.204 2.204 2.105 2.205 2.106 2.205-2.106 2.205-2.105-2.106 2.204c-1.158 1.213-2.195 2.205-2.304 2.205-.109 0-1.146-.992-2.304-2.205zm-3.197-3.527l-.672-.794.793.672c.746.632.955.915.672.915-.067 0-.424-.357-.793-.793zm10.617.088c.35-.388.717-.706.814-.706.097 0-.11.318-.462.706-.35.388-.718.705-.815.705-.097 0 .111-.317.463-.705zm-15.7-2.47c.209-.388.458-.705.555-.705.097 0 .006.317-.201.705-.208.389-.457.706-.554.706-.097 0-.007-.317.2-.706zm20.815 0c-.208-.388-.298-.705-.201-.705.097 0 .346.317.554.705.207.389.298.706.2.706-.096 0-.346-.317-.553-.706zm-16.228-7.76c.208-.389.457-.706.554-.706.097 0 .007.317-.201.705-.208.388-.457.706-.554.706-.097 0-.007-.318.201-.706zm11.642 0c-.208-.389-.299-.706-.202-.706.097 0 .347.317.554.705.208.388.299.706.202.706-.097 0-.347-.318-.554-.706zm-10.23-2.47c.207-.388.456-.706.553-.706.097 0 .007.318-.201.706-.208.388-.457.705-.554.705-.097 0-.007-.317.201-.705zm8.819 0c-.208-.388-.299-.706-.202-.706.097 0 .347.318.554.706.208.388.299.705.202.705-.097 0-.347-.317-.554-.705zm-5.248-5.906c.46-.824.917-1.497 1.014-1.497.097 0 .554.673 1.015 1.497.796 1.422.8 1.457.074.702-.953-.99-1.225-.99-2.178 0-.725.755-.722.72.075-.702z" fill="url(#m)"/><path d="M46.411 54.647l-1.216-1.322 1.323 1.215 1.323 1.216 1.323-1.216 1.323-1.215-1.216 1.322c-.668.728-1.312 1.323-1.43 1.323-.118 0-.761-.595-1.43-1.323zm-4.26-4.586c-.438-.56-.426-.572.134-.133.34.266.617.544.617.617 0 .29-.29.104-.75-.484zm10.63.484c0-.073.277-.35.616-.617.56-.439.573-.426.134.133-.461.588-.75.775-.75.484zm-10.937-10.45c.208-.388.457-.705.554-.705.097 0 .007.317-.201.705-.208.388-.457.706-.554.706-.097 0-.007-.318.201-.706zm11.642 0c-.208-.388-.299-.705-.202-.705.097 0 .347.317.554.705.208.388.299.706.202.706-.097 0-.347-.318-.554-.706zm-6.26-9.054c.473-1.038.757-1.038 1.23 0 .344.756.294.823-.615.823-.908 0-.959-.067-.614-.823z" fill="url(#n)"/><path d="M47.24 31.011c.199-.436.47-.793.601-.793.132 0 .403.357.601.793.327.718.27.794-.6.794-.871 0-.929-.076-.602-.794z" fill="url(#o)"/><path d="M47.235 31.022c.38-.835.759-.78 1.275.185.265.495.152.598-.656.598-.88 0-.94-.077-.619-.783z" fill="url(#p)"/><path d="M47.25 31.112c.157-.474 1.025-.474 1.183 0 .067.201-.2.365-.592.365-.392 0-.659-.164-.592-.365z" fill="url(#q)"/><path d="M47.25 31.112c.157-.474 1.025-.474 1.183 0 .067.201-.2.365-.592.365-.392 0-.659-.164-.592-.365z" fill="url(#r)"/><path d="M47.368 31.082c.214-.558.826-.704.826-.197 0 .174-.23.404-.511.512-.342.13-.446.026-.315-.315z" fill="url(#s)"/><path d="M47.488 30.923c0-.194.16-.353.353-.353.194 0 .353.16.353.353a.354.354 0 0 1-.353.353.354.354 0 0 1-.353-.353z" fill="url(#t)"/></g><g transform="matrix(1.01995 0 0 1.02767 54.37 11.429)" fill="url(#u)"><path d="M71.399 22V11.727c0-1.737-.35-3.022-1.048-3.857-.698-.834-1.794-1.241-3.288-1.222-1.924.03-3.448.796-4.57 2.298-.645.868-.997 1.707-1.055 2.517V22h-.791V11.361c-.01-1.591-.359-2.773-1.048-3.549-.688-.776-1.784-1.164-3.288-1.164-1.738 0-3.159.766-4.263 2.298a7.7 7.7 0 0 0-1.304 3.044V22h-.805V6.15h.805V9.9c.537-1.289 1.304-2.285 2.3-2.988a5.614 5.614 0 0 1 3.311-1.055c1.328 0 2.414.293 3.259.879.845.586 1.399 1.543 1.663 2.871a5.798 5.798 0 0 1 2.285-2.732c1.055-.678 2.236-1.018 3.545-1.018 1.709 0 2.981.484 3.816 1.451.835.966 1.257 2.417 1.267 4.35V22zm-27.188-2.9a6.362 6.362 0 0 1-2.563 2.358c-1.084.557-2.31.835-3.677.835-1.465 0-2.644-.398-3.538-1.194-.893-.796-1.34-1.833-1.34-3.113 0-1.455.657-2.619 1.97-3.493 1.314-.874 3.059-1.321 5.237-1.341h3.911v-2.314c0-1.328-.417-2.359-1.252-3.091-.835-.732-2.029-1.099-3.582-1.099-1.445 0-2.651.372-3.618 1.114-.967.742-1.45 1.66-1.45 2.754l-.791-.03c0-1.289.566-2.382 1.699-3.281 1.133-.898 2.52-1.348 4.16-1.348 1.709 0 3.067.428 4.073 1.282 1.005.855 1.523 2.058 1.552 3.611v7.573c0 1.739.137 2.92.41 3.545V22h-.908c-.195-.674-.293-1.641-.293-2.9zm0-5.157h-3.662c-2.266 0-3.999.45-5.2 1.348-.977.732-1.465 1.646-1.465 2.739 0 .967.386 1.787 1.157 2.461.772.674 1.748 1.011 2.93 1.011 1.484 0 2.761-.332 3.831-.996 1.069-.664 1.872-1.597 2.409-2.798zM28.42 2.005a.776.776 0 0 1-.571-.234.78.78 0 0 1-.234-.572c0-.224.078-.417.234-.578a.761.761 0 0 1 .571-.242c.225 0 .418.08.579.242a.79.79 0 0 1 .242.578.768.768 0 0 1-.242.572.803.803 0 0 1-.579.234zm-.469 4.145h.792v17.74c0 1.464-.367 2.583-1.099 3.354-.733.771-1.758 1.157-3.076 1.157-.479 0-.957-.097-1.436-.293l.044-.761c.469.175.933.263 1.392.263 1.093 0 1.931-.324 2.512-.974.581-.649.871-1.565.871-2.746zM21.858 19.1a6.365 6.365 0 0 1-2.564 2.358c-1.084.557-2.309.835-3.676.835-1.465 0-2.645-.398-3.538-1.194-.894-.796-1.34-1.833-1.34-3.113 0-1.455.656-2.619 1.97-3.493 1.313-.874 3.059-1.321 5.237-1.341h3.911v-2.314c0-1.328-.418-2.359-1.253-3.091-.835-.732-2.029-1.099-3.581-1.099-1.446 0-2.652.372-3.618 1.114-.967.742-1.451 1.66-1.451 2.754l-.791-.03c0-1.289.567-2.382 1.7-3.281 1.132-.898 2.519-1.348 4.16-1.348 1.709 0 3.066.428 4.072 1.282 1.006.855 1.523 2.058 1.553 3.611v7.573c0 1.739.136 2.92.41 3.545V22h-.908c-.196-.674-.293-1.641-.293-2.9zm0-5.157h-3.662c-2.266 0-3.999.45-5.201 1.348-.976.732-1.464 1.646-1.464 2.739 0 .967.385 1.787 1.157 2.461.771.674 1.748 1.011 2.93 1.011 1.484 0 2.761-.332 3.83-.996 1.069-.664 1.873-1.597 2.41-2.798zm-17.71 7.39c-.498-.641-.752-1.65-.762-3.028V6.941H.456V6.15h2.93V1.873h.806V6.15h3.603v.791H4.192v11.262c0 1.124.183 1.955.549 2.493.366.537.979.806 1.838.806.43 0 .953-.044 1.568-.132l.132.747c-.323.117-.874.176-1.656.176-1.152 0-1.977-.32-2.475-.96z" fill="url(#v)" fill-rule="evenodd"/><path d="M71.399 22V11.727c0-1.737-.35-3.022-1.048-3.857-.698-.834-1.794-1.241-3.288-1.222-1.924.03-3.448.796-4.57 2.298-.645.868-.997 1.707-1.055 2.517V22h-.791V11.361c-.01-1.591-.359-2.773-1.048-3.549-.688-.776-1.784-1.164-3.288-1.164-1.738 0-3.159.766-4.263 2.298a7.7 7.7 0 0 0-1.304 3.044V22h-.805V6.15h.805V9.9c.537-1.289 1.304-2.285 2.3-2.988a5.614 5.614 0 0 1 3.311-1.055c1.328 0 2.414.293 3.259.879.845.586 1.399 1.543 1.663 2.871a5.798 5.798 0 0 1 2.285-2.732c1.055-.678 2.236-1.018 3.545-1.018 1.709 0 2.981.484 3.816 1.451.835.966 1.257 2.417 1.267 4.35V22zm-27.188-2.9a6.362 6.362 0 0 1-2.563 2.358c-1.084.557-2.31.835-3.677.835-1.465 0-2.644-.398-3.538-1.194-.893-.796-1.34-1.833-1.34-3.113 0-1.455.657-2.619 1.97-3.493 1.314-.874 3.059-1.321 5.237-1.341h3.911v-2.314c0-1.328-.417-2.359-1.252-3.091-.835-.732-2.029-1.099-3.582-1.099-1.445 0-2.651.372-3.618 1.114-.967.742-1.45 1.66-1.45 2.754l-.791-.03c0-1.289.566-2.382 1.699-3.281 1.133-.898 2.52-1.348 4.16-1.348 1.709 0 3.067.428 4.073 1.282 1.005.855 1.523 2.058 1.552 3.611v7.573c0 1.739.137 2.92.41 3.545V22h-.908c-.195-.674-.293-1.641-.293-2.9zm0-5.157h-3.662c-2.266 0-3.999.45-5.2 1.348-.977.732-1.465 1.646-1.465 2.739 0 .967.386 1.787 1.157 2.461.772.674 1.748 1.011 2.93 1.011 1.484 0 2.761-.332 3.831-.996 1.069-.664 1.872-1.597 2.409-2.798zM28.42 2.005a.776.776 0 0 1-.571-.234.78.78 0 0 1-.234-.572c0-.224.078-.417.234-.578a.761.761 0 0 1 .571-.242c.225 0 .418.08.579.242a.79.79 0 0 1 .242.578.768.768 0 0 1-.242.572.803.803 0 0 1-.579.234zm-.469 4.145h.792v17.74c0 1.464-.367 2.583-1.099 3.354-.733.771-1.758 1.157-3.076 1.157-.479 0-.957-.097-1.436-.293l.044-.761c.469.175.933.263 1.392.263 1.093 0 1.931-.324 2.512-.974.581-.649.871-1.565.871-2.746zM21.858 19.1a6.365 6.365 0 0 1-2.564 2.358c-1.084.557-2.309.835-3.676.835-1.465 0-2.645-.398-3.538-1.194-.894-.796-1.34-1.833-1.34-3.113 0-1.455.656-2.619 1.97-3.493 1.313-.874 3.059-1.321 5.237-1.341h3.911v-2.314c0-1.328-.418-2.359-1.253-3.091-.835-.732-2.029-1.099-3.581-1.099-1.446 0-2.652.372-3.618 1.114-.967.742-1.451 1.66-1.451 2.754l-.791-.03c0-1.289.567-2.382 1.7-3.281 1.132-.898 2.519-1.348 4.16-1.348 1.709 0 3.066.428 4.072 1.282 1.006.855 1.523 2.058 1.553 3.611v7.573c0 1.739.136 2.92.41 3.545V22h-.908c-.196-.674-.293-1.641-.293-2.9zm0-5.157h-3.662c-2.266 0-3.999.45-5.201 1.348-.976.732-1.464 1.646-1.464 2.739 0 .967.385 1.787 1.157 2.461.771.674 1.748 1.011 2.93 1.011 1.484 0 2.761-.332 3.83-.996 1.069-.664 1.873-1.597 2.41-2.798zm-17.71 7.39c-.498-.641-.752-1.65-.762-3.028V6.941H.456V6.15h2.93V1.873h.806V6.15h3.603v.791H4.192v11.262c0 1.124.183 1.955.549 2.493.366.537.979.806 1.838.806.43 0 .953-.044 1.568-.132l.132.747c-.323.117-.874.176-1.656.176-1.152 0-1.977-.32-2.475-.96z" fill="url(#w)"/></g></svg>