<svg xmlns="http://www.w3.org/2000/svg" width="20" height="20" viewBox="0 0 19.999981 20.000299"><path d="M20 15.796q0 .383-.142 1.001-.142.618-.298.973-.299.71-1.733 1.506Q16.49 20 15.185 20q-.384 0-.746-.05t-.817-.177q-.454-.128-.675-.206-.22-.078-.788-.291-.568-.213-.696-.256-1.392-.497-2.486-1.18-1.817-1.12-3.757-3.06-1.939-1.94-3.06-3.757Q1.476 9.929.98 8.537.937 8.409.724 7.84q-.213-.568-.29-.788-.079-.22-.207-.675Q.1 5.923.05 5.56 0 5.2 0 4.815q0-1.307.724-2.642Q1.52.74 2.23.44q.355-.156.973-.298T4.205 0q.198 0 .298.043.256.085.753 1.08.156.27.426.767t.497.902q.227.404.44.76.043.056.249.355.206.298.305.504.1.206.1.405 0 .284-.405.71t-.88.781q-.477.355-.882.753-.404.398-.404.654 0 .127.07.32.072.19.121.29.05.1.2.341.148.242.163.27 1.08 1.946 2.471 3.338 1.392 1.392 3.338 2.472.029.014.27.163.242.15.341.199.1.05.291.12.192.072.32.072.256 0 .653-.405.398-.405.753-.88.355-.477.781-.882.427-.404.71-.404.2 0 .405.099.206.099.505.305.298.206.355.249.355.213.76.44t.902.497q.497.27.767.426.994.497 1.08.753.042.1.042.298z" fill="#f0f0f0"/></svg>