<svg version="1" xmlns="http://www.w3.org/2000/svg" width="100" height="100" viewBox="0 0 1000 1000"><g fill="#fff"><path d="M350 981c-89-29-141-60-206-125C44 756 0 647 0 500s44-256 144-356S353 0 500 0s256 44 356 144 144 209 144 356-44 256-144 356c-101 101-210 144-360 143-59 0-111-6-146-18zm280-38c239-64 385-328 315-570C857 67 486-62 232 125 21 280-25 570 129 774c123 161 304 223 501 169z"/><path d="M350 495c0-221 0-225 21-225 11 0 94 46 185 102 131 81 164 106 164 123s-33 43-163 123c-90 56-174 102-185 102-22 0-22-1-22-225zm185 83c75-45 132-85 128-88-12-10-263-160-269-160-2 0-4 74-4 165s2 165 5 165 66-37 140-82z"/></g></svg>